<svg width="136" height="41" viewBox="0 0 136 41" fill="none" xmlns="http://www.w3.org/2000/svg">
<rect x="0.833252" y="0.888672" width="134" height="39" rx="6.5" fill="black"/>
<rect x="0.833252" y="0.888672" width="134" height="39" rx="6.5" stroke="#A6A6A6"/>
<path d="M81.8592 19.59V21.881H80.4231V23.3835H81.8592V28.4885C81.8592 30.2316 82.6478 30.9289 84.6316 30.9289C84.9803 30.9289 85.3123 30.8874 85.6028 30.8376V29.3517C85.3538 29.3766 85.1961 29.3932 84.9222 29.3932C84.034 29.3932 83.6438 28.9782 83.6438 28.0319V23.3835H85.6028V21.881H83.6438V19.59H81.8592Z" fill="white"/>
<path d="M90.6567 31.0534C93.2963 31.0534 94.915 29.2853 94.915 26.3552C94.915 23.4416 93.288 21.6652 90.6567 21.6652C88.017 21.6652 86.3901 23.4416 86.3901 26.3552C86.3901 29.2853 88.0087 31.0534 90.6567 31.0534ZM90.6567 29.4679C89.1044 29.4679 88.2329 28.3307 88.2329 26.3552C88.2329 24.3962 89.1044 23.2507 90.6567 23.2507C92.2006 23.2507 93.0805 24.3962 93.0805 26.3552C93.0805 28.3224 92.2006 29.4679 90.6567 29.4679Z" fill="white"/>
<path d="M96.2999 30.8791H98.0845V25.5417C98.0845 24.2717 99.0391 23.4167 100.392 23.4167C100.708 23.4167 101.239 23.4748 101.388 23.5246V21.7648C101.197 21.715 100.857 21.6901 100.591 21.6901C99.4127 21.6901 98.4083 22.3376 98.151 23.2258H98.0181V21.8395H96.2999V30.8791Z" fill="white"/>
<path d="M105.82 23.1843C107.139 23.1843 108.003 24.1056 108.044 25.5251H103.479C103.578 24.1139 104.5 23.1843 105.82 23.1843ZM108.036 28.4387C107.704 29.1442 106.965 29.5344 105.886 29.5344C104.458 29.5344 103.537 28.53 103.479 26.9445V26.8449H109.862V26.2223C109.862 23.3835 108.343 21.6652 105.828 21.6652C103.28 21.6652 101.661 23.4997 101.661 26.3884C101.661 29.277 103.246 31.0534 105.836 31.0534C107.903 31.0534 109.347 30.0573 109.754 28.4387H108.036Z" fill="white"/>
<path d="M70.1556 27.5409C70.2933 29.7606 72.143 31.1802 74.8961 31.1802C77.8385 31.1802 79.6797 29.6918 79.6797 27.3172C79.6797 25.4503 78.6301 24.4178 76.0834 23.8242L74.7155 23.4887C73.098 23.1101 72.4441 22.6025 72.4441 21.7163C72.4441 20.5979 73.4593 19.8666 74.9822 19.8666C76.4276 19.8666 77.4256 20.5807 77.6062 21.7249H79.4818C79.37 19.6343 77.5288 18.1631 75.008 18.1631C72.2979 18.1631 70.4911 19.6343 70.4911 21.8454C70.4911 23.6693 71.5149 24.7534 73.7605 25.2782L75.3607 25.6654C77.004 26.0525 77.7267 26.6203 77.7267 27.5667C77.7267 28.668 76.591 29.4681 75.0424 29.4681C73.3819 29.4681 72.229 28.7196 72.0656 27.5409H70.1556Z" fill="white"/>
<path d="M51.6683 21.6901C50.4397 21.6901 49.3772 22.3044 48.8294 23.3337H48.6966V21.8395H46.9783V33.884H48.763V29.5095H48.9041C49.3772 30.464 50.3982 31.0285 51.6849 31.0285C53.9676 31.0285 55.4202 29.2272 55.4202 26.3552C55.4202 23.4831 53.9676 21.6901 51.6683 21.6901ZM51.1619 29.4264C49.6678 29.4264 48.7298 28.2477 48.7298 26.3635C48.7298 24.4709 49.6678 23.2922 51.1702 23.2922C52.681 23.2922 53.5857 24.446 53.5857 26.3552C53.5857 28.2726 52.681 29.4264 51.1619 29.4264Z" fill="white"/>
<path d="M61.6651 21.6901C60.4365 21.6901 59.374 22.3044 58.8262 23.3337H58.6934V21.8395H56.9751V33.884H58.7598V29.5095H58.9009C59.374 30.464 60.395 31.0285 61.6817 31.0285C63.9644 31.0285 65.417 29.2272 65.417 26.3552C65.417 23.4831 63.9644 21.6901 61.6651 21.6901ZM61.1587 29.4264C59.6646 29.4264 58.7266 28.2477 58.7266 26.3635C58.7266 24.4709 59.6646 23.2922 61.167 23.2922C62.6778 23.2922 63.5825 24.446 63.5825 26.3552C63.5825 28.2726 62.6778 29.4264 61.1587 29.4264Z" fill="white"/>
<path d="M43.7763 30.8791H45.824L41.3415 18.4642H39.2681L34.7856 30.8791H36.7645L37.9087 27.5839H42.6407L43.7763 30.8791ZM40.2059 20.7183H40.3521L42.1503 25.9665H38.3991L40.2059 20.7183Z" fill="white"/>
<path d="M35.9846 9.09937V15.0884H38.147C39.9316 15.0884 40.9651 13.9885 40.9651 12.0752C40.9651 10.1909 39.9233 9.09937 38.147 9.09937H35.9846ZM36.9143 9.94604H38.0432C39.2842 9.94604 40.0188 10.7346 40.0188 12.0876C40.0188 13.4614 39.2966 14.2417 38.0432 14.2417H36.9143V9.94604Z" fill="white"/>
<path d="M44.1302 15.1755C45.45 15.1755 46.2593 14.2915 46.2593 12.8264C46.2593 11.3696 45.4458 10.4814 44.1302 10.4814C42.8104 10.4814 41.9969 11.3696 41.9969 12.8264C41.9969 14.2915 42.8062 15.1755 44.1302 15.1755ZM44.1302 14.3828C43.3541 14.3828 42.9183 13.8142 42.9183 12.8264C42.9183 11.8469 43.3541 11.2742 44.1302 11.2742C44.9021 11.2742 45.3421 11.8469 45.3421 12.8264C45.3421 13.8101 44.9021 14.3828 44.1302 14.3828Z" fill="white"/>
<path d="M53.1515 10.5686H52.2591L51.454 14.0176H51.3834L50.4537 10.5686H49.5987L48.669 14.0176H48.6026L47.7933 10.5686H46.8885L48.1336 15.0884H49.0509L49.9806 11.7598H50.0511L50.985 15.0884H51.9105L53.1515 10.5686Z" fill="white"/>
<path d="M54.1791 15.0884H55.0714V12.4446C55.0714 11.739 55.4906 11.2991 56.1505 11.2991C56.8104 11.2991 57.1259 11.6602 57.1259 12.3865V15.0884H58.0182V12.1624C58.0182 11.0874 57.4621 10.4814 56.4535 10.4814C55.7729 10.4814 55.3246 10.7844 55.1046 11.2866H55.0382V10.5686H54.1791V15.0884Z" fill="white"/>
<path d="M59.4235 15.0884H60.3159V8.80469H59.4235V15.0884Z" fill="white"/>
<path d="M63.6719 15.1755C64.9917 15.1755 65.801 14.2915 65.801 12.8264C65.801 11.3696 64.9875 10.4814 63.6719 10.4814C62.3521 10.4814 61.5386 11.3696 61.5386 12.8264C61.5386 14.2915 62.3479 15.1755 63.6719 15.1755ZM63.6719 14.3828C62.8958 14.3828 62.46 13.8142 62.46 12.8264C62.46 11.8469 62.8958 11.2742 63.6719 11.2742C64.4438 11.2742 64.8838 11.8469 64.8838 12.8264C64.8838 13.8101 64.4438 14.3828 63.6719 14.3828Z" fill="white"/>
<path d="M68.4598 14.4119C67.9742 14.4119 67.6214 14.1753 67.6214 13.7686C67.6214 13.3701 67.9036 13.1584 68.5262 13.1169L69.6302 13.0464V13.4241C69.6302 13.9844 69.1321 14.4119 68.4598 14.4119ZM68.2315 15.1631C68.825 15.1631 69.3189 14.9058 69.5887 14.4534H69.6592V15.0884H70.5184V12.0005C70.5184 11.0459 69.8792 10.4814 68.7461 10.4814C67.721 10.4814 66.9905 10.9795 66.8992 11.7556H67.7625C67.8621 11.436 68.2066 11.2534 68.7046 11.2534C69.3147 11.2534 69.6302 11.5232 69.6302 12.0005V12.3906L68.4058 12.4612C67.3309 12.5276 66.7249 12.9966 66.7249 13.8101C66.7249 14.636 67.3599 15.1631 68.2315 15.1631Z" fill="white"/>
<path d="M73.5465 15.1631C74.169 15.1631 74.6961 14.8684 74.9659 14.3745H75.0365V15.0884H75.8915V8.80469H74.9991V11.2866H74.9327C74.6878 10.7886 74.1649 10.4939 73.5465 10.4939C72.4051 10.4939 71.6705 11.3987 71.6705 12.8264C71.6705 14.2583 72.3968 15.1631 73.5465 15.1631ZM73.7997 11.2949C74.5467 11.2949 75.0157 11.8884 75.0157 12.8306C75.0157 13.7769 74.5509 14.3621 73.7997 14.3621C73.0443 14.3621 72.5919 13.7852 72.5919 12.8264C72.5919 11.876 73.0484 11.2949 73.7997 11.2949Z" fill="white"/>
<path d="M81.6779 15.1755C82.9978 15.1755 83.8071 14.2915 83.8071 12.8264C83.8071 11.3696 82.9936 10.4814 81.6779 10.4814C80.3581 10.4814 79.5446 11.3696 79.5446 12.8264C79.5446 14.2915 80.354 15.1755 81.6779 15.1755ZM81.6779 14.3828C80.9018 14.3828 80.466 13.8142 80.466 12.8264C80.466 11.8469 80.9018 11.2742 81.6779 11.2742C82.4499 11.2742 82.8898 11.8469 82.8898 12.8264C82.8898 13.8101 82.4499 14.3828 81.6779 14.3828Z" fill="white"/>
<path d="M84.9883 15.0884H85.8806V12.4446C85.8806 11.739 86.2998 11.2991 86.9597 11.2991C87.6196 11.2991 87.9351 11.6602 87.9351 12.3865V15.0884H88.8274V12.1624C88.8274 11.0874 88.2712 10.4814 87.2627 10.4814C86.582 10.4814 86.1338 10.7844 85.9138 11.2866H85.8474V10.5686H84.9883V15.0884Z" fill="white"/>
<path d="M92.9371 9.44385V10.5894H92.2191V11.3406H92.9371V13.8931C92.9371 14.7646 93.3314 15.1133 94.3233 15.1133C94.4977 15.1133 94.6637 15.0925 94.8089 15.0676V14.3247C94.6844 14.3372 94.6056 14.3455 94.4686 14.3455C94.0245 14.3455 93.8294 14.1379 93.8294 13.6648V11.3406H94.8089V10.5894H93.8294V9.44385H92.9371Z" fill="white"/>
<path d="M96.0067 15.0884H96.8991V12.4487C96.8991 11.7639 97.3058 11.3032 98.0363 11.3032C98.6671 11.3032 99.0033 11.6685 99.0033 12.3906V15.0884H99.8957V12.1707C99.8957 11.0957 99.3021 10.4856 98.3393 10.4856C97.6586 10.4856 97.1813 10.7886 96.9613 11.2949H96.8908V8.80469H96.0067V15.0884Z" fill="white"/>
<path d="M103.115 11.241C103.775 11.241 104.206 11.7017 104.227 12.4114H101.944C101.994 11.7058 102.455 11.241 103.115 11.241ZM104.223 13.8682C104.057 14.2209 103.687 14.416 103.148 14.416C102.434 14.416 101.973 13.9138 101.944 13.1211V13.0713H105.136V12.76C105.136 11.3406 104.376 10.4814 103.119 10.4814C101.845 10.4814 101.035 11.3987 101.035 12.843C101.035 14.2874 101.828 15.1755 103.123 15.1755C104.156 15.1755 104.879 14.6775 105.082 13.8682H104.223Z" fill="white"/>
<path d="M25.1022 20.6897C25.1239 19.0087 26.0267 17.4181 27.4588 16.5377C26.5553 15.2474 25.0421 14.4293 23.4676 14.38C21.7884 14.2037 20.1605 15.3848 19.3047 15.3848C18.4325 15.3848 17.115 14.3975 15.6962 14.4267C13.847 14.4864 12.123 15.5378 11.2233 17.1546C9.28932 20.503 10.7319 25.424 12.5845 28.1306C13.5114 29.456 14.5947 30.9364 16.0122 30.8839C17.3992 30.8264 17.9173 29.9995 19.5916 29.9995C21.2503 29.9995 21.7363 30.8839 23.1826 30.8506C24.6709 30.8264 25.6087 29.5193 26.5031 28.1814C27.169 27.2371 27.6815 26.1933 28.0215 25.0889C26.2724 24.3491 25.1043 22.5889 25.1022 20.6897Z" fill="white"/>
<path d="M22.3706 12.6C23.1821 11.6258 23.5819 10.3736 23.4851 9.10938C22.2453 9.2396 21.1 9.83215 20.2775 10.769C19.4732 11.6843 19.0547 12.9145 19.1338 14.1304C20.3741 14.1431 21.5934 13.5666 22.3706 12.6Z" fill="white"/>
</svg>
