<svg width="25" height="24" viewBox="0 0 25 24" fill="none" xmlns="http://www.w3.org/2000/svg">
<g opacity="0.7">
<path fill-rule="evenodd" clip-rule="evenodd" d="M7.59197 4.25547C8.43314 2.47951 10.2417 1.25 12.3391 1.25C14.4365 1.25 16.2451 2.47951 17.0863 4.25547C17.1701 4.25184 17.2544 4.25 17.3391 4.25C20.5147 4.25 23.0891 6.82436 23.0891 10C23.0891 12.1806 21.8754 14.0762 20.0891 15.0508L20.0891 18.052C20.0891 18.9505 20.0892 19.6997 20.0092 20.2945C19.9248 20.9223 19.7391 21.4891 19.2837 21.9445C18.8282 22.4 18.2614 22.5857 17.6336 22.6701C17.0388 22.7501 16.2896 22.75 15.3911 22.75H9.28712C8.38864 22.75 7.63941 22.7501 7.04463 22.6701C6.41684 22.5857 5.85004 22.4 5.39457 21.9445C4.9391 21.4891 4.75343 20.9223 4.66902 20.2945C4.58906 19.6997 4.58908 18.9505 4.58911 18.052L4.58911 15.0508C2.80282 14.0762 1.58911 12.1806 1.58911 10C1.58911 6.82436 4.16347 4.25 7.33911 4.25C7.4238 4.25 7.5081 4.25184 7.59197 4.25547ZM7.14173 5.7545C4.88615 5.85762 3.08911 7.71895 3.08911 10C3.08911 11.7416 4.1368 13.2402 5.63939 13.8967C5.91256 14.016 6.08911 14.2859 6.08911 14.584V17.25H18.5891L18.5891 14.584C18.5891 14.2859 18.7657 14.016 19.0388 13.8967C20.5414 13.2402 21.5891 11.7416 21.5891 10C21.5891 7.71895 19.7921 5.85761 17.5365 5.7545C17.5712 5.99825 17.5891 6.24718 17.5891 6.5V7C17.5891 7.41421 17.2533 7.75 16.8391 7.75C16.4249 7.75 16.0891 7.41421 16.0891 7V6.5C16.0891 6.07715 16.0194 5.67212 15.8915 5.29486C15.3893 3.81402 13.9875 2.75 12.3391 2.75C10.6907 2.75 9.28892 3.81402 8.78674 5.29486C8.65881 5.67212 8.58911 6.07715 8.58911 6.5V7C8.58911 7.41421 8.25332 7.75 7.83911 7.75C7.4249 7.75 7.08911 7.41421 7.08911 7V6.5C7.08911 6.24717 7.10704 5.99825 7.14173 5.7545ZM18.5873 18.75H6.09092C6.09515 19.3194 6.1092 19.7491 6.15565 20.0946C6.21769 20.5561 6.32491 20.7536 6.45523 20.8839C6.58554 21.0142 6.78304 21.1214 7.2445 21.1835C7.72754 21.2484 8.3751 21.25 9.33911 21.25H15.3391C16.3031 21.25 16.9507 21.2484 17.4337 21.1835C17.8952 21.1214 18.0927 21.0142 18.223 20.8839C18.3533 20.7536 18.4605 20.5561 18.5226 20.0946C18.569 19.7491 18.5831 19.3194 18.5873 18.75Z" fill="white"/>
</g>
</svg>
