<svg width="40" height="40" viewBox="0 0 40 40" fill="none" xmlns="http://www.w3.org/2000/svg">
<g id="Frame">
<g id="Group">
<path id="Vector" d="M22.3218 0H17.6343C14.4034 0 11.7749 2.62852 11.7749 5.85938V7.03125H5.91554C5.30304 7.03125 4.79367 7.50313 4.74703 8.11367L2.40328 38.7387C2.39098 38.8996 2.41207 39.0613 2.46521 39.2137C2.51835 39.3661 2.60241 39.5059 2.7121 39.6243C2.82179 39.7428 2.95477 39.8373 3.10271 39.9019C3.25064 39.9666 3.41034 40 3.57179 40H36.3843C36.5457 40 36.7054 39.9666 36.8533 39.902C37.0012 39.8374 37.1342 39.743 37.244 39.6246C37.3537 39.5061 37.4377 39.3663 37.4908 39.2139C37.544 39.0614 37.5651 38.8996 37.5528 38.7387L35.2091 8.11367C35.1623 7.50313 34.653 7.03125 34.0405 7.03125H28.1812V5.85938C28.1812 2.62852 25.5527 0 22.3218 0ZM14.1187 5.85938C14.1187 3.92086 15.6959 2.34375 17.6343 2.34375H22.3218C24.2603 2.34375 25.8374 3.92094 25.8374 5.85938V7.03125H14.1187V5.85938ZM32.955 9.375L35.1194 37.6562H4.83664L7.00101 9.375H11.7749V11.7188C11.7749 12.366 12.2995 12.8906 12.9468 12.8906C13.5941 12.8906 14.1187 12.366 14.1187 11.7188V9.375H25.8374V11.7188C25.8374 12.366 26.362 12.8906 27.0093 12.8906C27.6566 12.8906 28.1812 12.366 28.1812 11.7188V9.375H32.955Z" fill="#202939"/>
<path id="Vector_2" d="M9.43124 31.7188C9.43124 32.366 9.95585 32.8906 10.6031 32.8906H29.3531C30.0004 32.8906 30.525 32.366 30.525 31.7188C30.525 31.0715 30.0004 30.5469 29.3531 30.5469H10.6031C9.95585 30.5469 9.43124 31.0715 9.43124 31.7188ZM12.9469 28.2031H27.0094C27.6566 28.2031 28.1812 27.6785 28.1812 27.0312C28.1812 22.9059 25.12 19.4827 21.15 18.912V17.75C21.15 17.1027 20.6254 16.5781 19.9781 16.5781C19.3309 16.5781 18.8062 17.1027 18.8062 17.75V18.9121C14.8362 19.4828 11.775 22.9059 11.775 27.0313C11.775 27.6786 12.2996 28.2032 12.9469 28.2032V28.2031ZM19.9781 21.1719C22.8077 21.1719 25.1752 23.1882 25.7197 25.8594H14.2366C14.781 23.1882 17.1485 21.1719 19.9781 21.1719Z" fill="#202939"/>
</g>
</g>
</svg>
