<svg width="15" height="15" viewBox="0 0 15 15" fill="none" xmlns="http://www.w3.org/2000/svg">
<path d="M1.90983 11.6719L1.8976 11.6841C1.7326 11.3236 1.62872 10.9141 1.58594 10.4619C1.62872 10.908 1.74483 11.3114 1.90983 11.6719Z" fill="#525252"/>
<path d="M5.83335 6.39815C6.63662 6.39815 7.2878 5.74697 7.2878 4.9437C7.2878 4.14043 6.63662 3.48926 5.83335 3.48926C5.03008 3.48926 4.37891 4.14043 4.37891 4.9437C4.37891 5.74697 5.03008 6.39815 5.83335 6.39815Z" fill="#525252"/>
<path d="M10.2271 1.27686H5.10598C2.88153 1.27686 1.55542 2.60297 1.55542 4.82741V9.94852C1.55542 10.6146 1.67153 11.1952 1.89764 11.6841C2.4232 12.8452 3.54764 13.4991 5.10598 13.4991H10.2271C12.4515 13.4991 13.7776 12.173 13.7776 9.94852V8.54908V4.82741C13.7776 2.60297 12.4515 1.27686 10.2271 1.27686ZM12.7815 7.69352C12.3049 7.28408 11.5349 7.28408 11.0582 7.69352L8.51598 9.87519C8.03931 10.2846 7.26931 10.2846 6.79264 9.87519L6.58486 9.70408C6.15098 9.32519 5.46042 9.28852 4.97153 9.61852L2.68598 11.1524C2.55153 10.8102 2.47209 10.413 2.47209 9.94852V4.82741C2.47209 3.10408 3.38264 2.19352 5.10598 2.19352H10.2271C11.9504 2.19352 12.861 3.10408 12.861 4.82741V7.76074L12.7815 7.69352Z" fill="#525252"/>
</svg>
