<svg width="25" height="24" viewBox="0 0 25 24" fill="none" xmlns="http://www.w3.org/2000/svg">
<path d="M2.33911 12.2039C2.33911 9.91549 2.33911 8.77128 2.85831 7.82274C3.37751 6.87421 4.32606 6.28551 6.22315 5.10813L8.22314 3.86687C10.2285 2.62229 11.2312 2 12.3391 2C13.447 2 14.4497 2.62229 16.4551 3.86687L18.4551 5.10812C20.3522 6.28551 21.3007 6.87421 21.8199 7.82274C22.3391 8.77128 22.3391 9.91549 22.3391 12.2039V13.725C22.3391 17.6258 22.3391 19.5763 21.1675 20.7881C19.996 22 18.1103 22 14.3391 22H10.3391C6.56787 22 4.68226 22 3.51068 20.7881C2.33911 19.5763 2.33911 17.6258 2.33911 13.725V12.2039Z" stroke="white" stroke-width="1.5"/>
<path d="M15.3391 18H9.33911" stroke="white" stroke-width="1.5" stroke-linecap="round"/>
</svg>
