<svg width="20" height="20" viewBox="0 0 20 20" fill="none" xmlns="http://www.w3.org/2000/svg">
<path d="M14.7812 7.5C14.7812 4.87695 12.623 2.71875 10 2.71875C7.34375 2.71875 5.21875 4.87695 5.21875 7.5C5.21875 7.93164 5.35156 8.5625 5.7168 9.42578C6.04883 10.2227 6.54688 11.1523 7.11133 12.082C8.07422 13.6094 9.16992 15.0703 10 16.1328C10.7969 15.0703 11.8926 13.6094 12.8555 12.082C13.4199 11.1523 13.918 10.2227 14.25 9.42578C14.6152 8.5625 14.7812 7.93164 14.7812 7.5ZM16.375 7.5C16.375 10.4219 12.4902 15.5684 10.7637 17.7266C10.3652 18.2246 9.60156 18.2246 9.20312 17.7266C7.50977 15.5684 3.625 10.4219 3.625 7.5C3.625 3.98047 6.48047 1.125 10 1.125C13.5195 1.125 16.375 3.98047 16.375 7.5ZM11.0625 7.5C11.0625 6.93555 10.5645 6.4375 10 6.4375C9.40234 6.4375 8.9375 6.93555 8.9375 7.5C8.9375 8.09766 9.40234 8.5625 10 8.5625C10.5645 8.5625 11.0625 8.09766 11.0625 7.5ZM7.34375 7.5C7.34375 6.57031 7.8418 5.70703 8.67188 5.20898C9.46875 4.74414 10.498 4.74414 11.3281 5.20898C12.125 5.70703 12.6562 6.57031 12.6562 7.5C12.6562 8.46289 12.125 9.32617 11.3281 9.82422C10.498 10.2891 9.46875 10.2891 8.67188 9.82422C7.8418 9.32617 7.34375 8.46289 7.34375 7.5Z" fill="#990001"/>
</svg>
