<svg width="20" height="20" viewBox="0 0 20 20" fill="none" xmlns="http://www.w3.org/2000/svg">
<path d="M18.3333 7.50009V12.5001C18.3333 14.5834 17.9166 16.0418 16.9833 16.9834L11.6666 11.6668L18.1083 5.2251C18.2583 5.88343 18.3333 6.63343 18.3333 7.50009Z" stroke="white" stroke-width="1.5" stroke-linecap="round" stroke-linejoin="round"/>
<path d="M18.1083 5.22484L5.22495 18.1082C2.71662 17.5332 1.66663 15.7998 1.66663 12.4998V7.49984C1.66663 3.33317 3.33329 1.6665 7.49996 1.6665H12.5C15.8 1.6665 17.5333 2.71651 18.1083 5.22484Z" stroke="white" stroke-width="1.5" stroke-linecap="round" stroke-linejoin="round"/>
<path d="M16.9833 16.9832C16.0417 17.9165 14.5833 18.3332 12.5 18.3332H7.49998C6.63332 18.3332 5.88331 18.2582 5.22498 18.1082L11.6667 11.6665L16.9833 16.9832Z" stroke="white" stroke-width="1.5" stroke-linecap="round" stroke-linejoin="round"/>
<path d="M5.19997 6.6501C5.76664 4.20843 9.43332 4.20843 9.99998 6.6501C10.325 8.08343 9.42497 9.3001 8.6333 10.0501C8.0583 10.6001 7.14999 10.6001 6.56665 10.0501C5.77499 9.3001 4.86664 8.08343 5.19997 6.6501Z" stroke="white" stroke-width="1.5"/>
<path d="M7.57884 7.25016H7.58632" stroke="white" stroke-width="2" stroke-linecap="round" stroke-linejoin="round"/>
</svg>
