<svg width="25" height="24" viewBox="0 0 25 24" fill="none" xmlns="http://www.w3.org/2000/svg">
<g opacity="0.7">
<path d="M10.6255 9.53962C11.0666 9.25442 11.4892 8.91838 11.8391 8.50489C12.1891 8.91838 12.6116 9.25442 13.0527 9.53962C13.6842 9.94787 14.423 10.2923 15.1087 10.612C15.2972 10.6998 15.4816 10.7858 15.6587 10.8708C16.5232 11.2853 17.2534 11.6903 17.7724 12.215C18.2617 12.7096 18.5749 13.3223 18.5749 14.2223H18.5748L18.5749 14.231C18.5834 14.9549 18.3769 15.6594 17.9898 16.25H5.68842C5.30134 15.6594 5.09486 14.9549 5.10327 14.231L5.10333 14.231V14.2223C5.10333 13.3223 5.41655 12.7096 5.9058 12.215C6.42487 11.6903 7.15504 11.2853 8.01949 10.8708C8.1966 10.7858 8.38104 10.6998 8.56947 10.612C9.25525 10.2923 9.994 9.94787 10.6255 9.53962ZM5.46437 16.25C5.46474 16.25 5.46512 16.25 5.4655 16.25L5.46437 16.25ZM11.4873 5.64157C11.2547 5.57509 11.0391 5.44521 10.8638 5.26031C10.6464 5.031 10.5037 4.72991 10.463 4.40164C10.4247 4.08085 10.4894 3.75768 10.644 3.48283C10.6534 3.66757 10.6839 3.85142 10.7358 4.0305C10.8606 4.46168 11.1044 4.85 11.4417 5.14616C11.4941 5.19217 11.5484 5.23564 11.6044 5.27647L11.4873 5.64157ZM12.3156 5.62414C12.2763 5.63758 12.2366 5.64917 12.1965 5.6589L12.1703 5.5772C12.2181 5.59447 12.2666 5.61013 12.3156 5.62414Z" stroke="white" stroke-width="1.5"/>
<path d="M5.33911 21H18.3391" stroke="white" stroke-width="1.5" stroke-linecap="round"/>
</g>
</svg>
