<svg width="15" height="15" viewBox="0 0 15 15" fill="none" xmlns="http://www.w3.org/2000/svg">
<path d="M10.4999 1.27686H4.38881C2.70214 1.27686 1.33325 2.63963 1.33325 4.32019V7.97463V8.58574C1.33325 10.2663 2.70214 11.6291 4.38881 11.6291H5.30547C5.47047 11.6291 5.69047 11.7391 5.79436 11.8735L6.71103 13.0896C7.11436 13.6274 7.77436 13.6274 8.1777 13.0896L9.09436 11.8735C9.21047 11.7207 9.39381 11.6291 9.58325 11.6291H10.4999C12.1866 11.6291 13.5555 10.2663 13.5555 8.58574V4.32019C13.5555 2.63963 12.1866 1.27686 10.4999 1.27686ZM8.05547 8.45741H4.38881C4.13825 8.45741 3.93047 8.24963 3.93047 7.99908C3.93047 7.74852 4.13825 7.54074 4.38881 7.54074H8.05547C8.30603 7.54074 8.51381 7.74852 8.51381 7.99908C8.51381 8.24963 8.30603 8.45741 8.05547 8.45741ZM10.4999 5.40186H4.38881C4.13825 5.40186 3.93047 5.19408 3.93047 4.94352C3.93047 4.69297 4.13825 4.48519 4.38881 4.48519H10.4999C10.7505 4.48519 10.9583 4.69297 10.9583 4.94352C10.9583 5.19408 10.7505 5.40186 10.4999 5.40186Z" fill="#525252"/>
</svg>
