<svg width="43" height="57" viewBox="0 0 43 57" fill="none" xmlns="http://www.w3.org/2000/svg">
<path id="mosque" d="M2.46317 42.1389C0.861946 39.9923 0.00750624 37.3457 0.0390627 34.6301C0.0390627 22.0368 18.2199 23.611 21.25 14.1661C24.2802 23.611 42.461 22.0368 42.461 34.6301C42.4926 37.3457 41.6381 39.9923 40.0369 42.1389C39.9486 42.2533 39.8365 42.3454 39.7089 42.4081C39.5813 42.4708 39.4417 42.5026 39.3006 42.5009H3.19041C3.05081 42.5011 2.91296 42.4687 2.78707 42.406C2.66118 42.3433 2.55048 42.252 2.46317 42.1389ZM37.9158 47.2234H4.58427C3.96687 47.1319 3.33745 47.1909 2.74582 47.3959C2.15419 47.6008 1.6166 47.9461 1.17561 48.4043C0.734627 48.8625 0.402347 49.421 0.20508 50.0357C0.00781235 50.6504 -0.0490262 51.3044 0.0390627 51.9459V55.0942C0.0390627 55.5117 0.198686 55.9121 0.482816 56.2073C0.766947 56.5025 1.15231 56.6684 1.55413 56.6684H40.9459C41.3477 56.6684 41.7331 56.5025 42.0172 56.2073C42.3014 55.9121 42.461 55.5117 42.461 55.0942V51.9459C42.5491 51.3044 42.4922 50.6504 42.295 50.0357C42.0977 49.421 41.7654 48.8625 41.3244 48.4043C40.8835 47.9461 40.3459 47.6008 39.7542 47.3959C39.1626 47.1909 38.5332 47.1319 37.9158 47.2234ZM20.4198 12.5226C21.9226 12.7656 23.4587 12.4211 24.7314 11.5559C26.004 10.6907 26.9229 9.36601 27.3103 7.83793C27.3224 7.79023 27.3201 7.7398 27.3035 7.69355C27.287 7.6473 27.2571 7.60749 27.218 7.57957C27.1788 7.55165 27.1323 7.53699 27.0849 7.53759C27.0374 7.53818 26.9912 7.55402 26.9527 7.58292C26.0299 8.23788 24.9052 8.51178 23.7984 8.35111C22.9605 8.24199 22.1711 7.88243 21.5261 7.3161C20.8811 6.74976 20.4083 6.00102 20.1651 5.16081C19.9218 4.32061 19.9186 3.42509 20.1559 2.58304C20.3931 1.74099 20.8606 0.988626 21.5015 0.417343C21.5386 0.385915 21.5651 0.343154 21.5774 0.295143C21.5897 0.247133 21.5871 0.19632 21.57 0.149935C21.5528 0.10355 21.5221 0.0639567 21.482 0.0367891C21.442 0.00962164 21.3948 -0.00373613 21.347 -0.00138276C20.2824 -0.00466813 19.2351 0.278325 18.307 0.82008C17.3788 1.36183 16.6014 2.14391 16.0503 3.09027C15.3602 4.28209 15.0753 5.68015 15.2413 7.0603C15.4107 8.43391 16.0089 9.71193 16.9442 10.6985C17.8796 11.6851 19.1004 12.3259 20.4198 12.5226Z" fill="#F3A694"/>
</svg>
