<svg width="20" height="21" viewBox="0 0 20 21" fill="none" xmlns="http://www.w3.org/2000/svg">
<path d="M18.3082 15.6635C18.3082 15.9635 18.2415 16.2718 18.0998 16.5718C17.9582 16.8718 17.7748 17.1552 17.5332 17.4218C17.1248 17.8718 16.6748 18.1968 16.1665 18.4052C15.6665 18.6135 15.1248 18.7218 14.5415 18.7218C13.6915 18.7218 12.7832 18.5218 11.8248 18.1135C10.8665 17.7052 9.90817 17.1552 8.95817 16.4635C7.99984 15.7635 7.0915 14.9885 6.22484 14.1302C5.3665 13.2635 4.5915 12.3552 3.89984 11.4052C3.2165 10.4552 2.6665 9.50518 2.2665 8.56351C1.8665 7.61351 1.6665 6.70518 1.6665 5.83851C1.6665 5.27184 1.7665 4.73018 1.9665 4.23018C2.1665 3.72184 2.48317 3.25518 2.92484 2.83851C3.45817 2.31351 4.0415 2.05518 4.65817 2.05518C4.8915 2.05518 5.12484 2.10518 5.33317 2.20518C5.54984 2.30518 5.7415 2.45518 5.8915 2.67184L7.82484 5.39684C7.97484 5.60518 8.08317 5.79684 8.15817 5.98018C8.23317 6.15518 8.27484 6.33018 8.27484 6.48851C8.27484 6.68851 8.2165 6.88851 8.09984 7.08018C7.9915 7.27184 7.83317 7.47184 7.63317 7.67184L6.99984 8.33018C6.90817 8.42184 6.8665 8.53018 6.8665 8.66351C6.8665 8.73018 6.87484 8.78851 6.8915 8.85518C6.9165 8.92184 6.9415 8.97184 6.95817 9.02184C7.10817 9.29684 7.3665 9.65518 7.73317 10.0885C8.10817 10.5218 8.50817 10.9635 8.9415 11.4052C9.3915 11.8468 9.82484 12.2552 10.2665 12.6302C10.6998 12.9968 11.0582 13.2468 11.3415 13.3968C11.3832 13.4135 11.4332 13.4385 11.4915 13.4635C11.5582 13.4885 11.6248 13.4968 11.6998 13.4968C11.8415 13.4968 11.9498 13.4468 12.0415 13.3552L12.6748 12.7302C12.8832 12.5218 13.0832 12.3635 13.2748 12.2635C13.4665 12.1468 13.6582 12.0885 13.8665 12.0885C14.0248 12.0885 14.1915 12.1218 14.3748 12.1968C14.5582 12.2718 14.7498 12.3802 14.9582 12.5218L17.7165 14.4802C17.9332 14.6302 18.0832 14.8052 18.1748 15.0135C18.2582 15.2218 18.3082 15.4302 18.3082 15.6635Z" stroke="#990001" stroke-width="1.875" stroke-miterlimit="10"/>
</svg>
