<svg width="136" height="41" viewBox="0 0 136 41" fill="none" xmlns="http://www.w3.org/2000/svg">
<rect x="0.833252" y="0.888672" width="134" height="39" rx="4.5" fill="black"/>
<rect x="0.833252" y="0.888672" width="134" height="39" rx="4.5" stroke="#A6A6A6"/>
<path d="M68.4692 22.1395C66.1172 22.1395 64.2002 23.9285 64.2002 26.3925C64.2002 28.8415 66.1172 30.6455 68.4692 30.6455C70.8222 30.6455 72.7392 28.8415 72.7392 26.3925C72.7382 23.9285 70.8212 22.1395 68.4692 22.1395ZM68.4692 28.9715C67.1802 28.9715 66.0692 27.9085 66.0692 26.3935C66.0692 24.8625 67.1812 23.8155 68.4692 23.8155C69.7582 23.8155 70.8692 24.8625 70.8692 26.3935C70.8692 27.9075 69.7582 28.9715 68.4692 28.9715ZM59.1552 22.1395C56.8032 22.1395 54.8862 23.9285 54.8862 26.3925C54.8862 28.8415 56.8032 30.6455 59.1552 30.6455C61.5082 30.6455 63.4252 28.8415 63.4252 26.3925C63.4252 23.9285 61.5082 22.1395 59.1552 22.1395ZM59.1552 28.9715C57.8662 28.9715 56.7552 27.9085 56.7552 26.3935C56.7552 24.8625 57.8672 23.8155 59.1552 23.8155C60.4442 23.8155 61.5552 24.8625 61.5552 26.3935C61.5562 27.9075 60.4442 28.9715 59.1552 28.9715ZM48.0772 23.4455V25.2495H52.3952C52.2662 26.2645 51.9282 27.0055 51.4122 27.5205C50.7842 28.1485 49.8012 28.8415 48.0772 28.8415C45.4192 28.8415 43.3412 26.6985 43.3412 24.0405C43.3412 21.3825 45.4192 19.2395 48.0772 19.2395C49.5112 19.2395 50.5582 19.8035 51.3312 20.5285L52.6042 19.2555C51.5242 18.2245 50.0912 17.4355 48.0772 17.4355C44.4362 17.4355 41.3752 20.3995 41.3752 24.0405C41.3752 27.6815 44.4362 30.6455 48.0772 30.6455C50.0422 30.6455 51.5252 30.0005 52.6842 28.7925C53.8762 27.6005 54.2472 25.9245 54.2472 24.5715C54.2472 24.1535 54.2152 23.7665 54.1502 23.4445H48.0772V23.4455ZM93.3852 24.8465C93.0312 23.8965 91.9512 22.1395 89.7442 22.1395C87.5532 22.1395 85.7322 23.8635 85.7322 26.3925C85.7322 28.7765 87.5372 30.6455 89.9532 30.6455C91.9022 30.6455 93.0302 29.4535 93.4982 28.7605L92.0482 27.7935C91.5652 28.5025 90.9042 28.9695 89.9532 28.9695C89.0032 28.9695 88.3262 28.5345 87.8912 27.6805L93.5782 25.3285L93.3852 24.8465ZM87.5852 26.2645C87.5372 24.6205 88.8582 23.7835 89.8092 23.7835C90.5502 23.7835 91.1782 24.1545 91.3882 24.6855L87.5852 26.2645ZM82.9622 30.3885H84.8302V17.8875H82.9622V30.3885ZM79.9002 23.0905H79.8362C79.4172 22.5905 78.6112 22.1395 77.5972 22.1395C75.4702 22.1395 73.5212 24.0085 73.5212 26.4095C73.5212 28.7935 75.4702 30.6465 77.5972 30.6465C78.6122 30.6465 79.4172 30.1955 79.8362 29.6805H79.9002V30.2925C79.9002 31.9195 79.0302 32.7895 77.6292 32.7895C76.4852 32.7895 75.7762 31.9685 75.4862 31.2755L73.8592 31.9525C74.3262 33.0795 75.5662 34.4655 77.6292 34.4655C79.8202 34.4655 81.6732 33.1765 81.6732 30.0345V22.3985H79.9012V23.0905H79.9002ZM77.7582 28.9715C76.4692 28.9715 75.3902 27.8915 75.3902 26.4095C75.3902 24.9105 76.4692 23.8155 77.7582 23.8155C79.0302 23.8155 80.0292 24.9105 80.0292 26.4095C80.0292 27.8915 79.0302 28.9715 77.7582 28.9715ZM102.139 17.8875H97.6682V30.3885H99.5332V25.6525H102.138C104.206 25.6525 106.24 24.1555 106.24 21.7705C106.24 19.3855 104.207 17.8875 102.139 17.8875ZM102.187 23.9125H99.5332V19.6275H102.187C103.582 19.6275 104.374 20.7825 104.374 21.7705C104.374 22.7385 103.582 23.9125 102.187 23.9125ZM113.719 22.1175C112.368 22.1175 110.969 22.7125 110.39 24.0315L112.046 24.7225C112.4 24.0315 113.06 23.8055 113.751 23.8055C114.716 23.8055 115.697 24.3845 115.713 25.4135V25.5425C115.375 25.3495 114.651 25.0605 113.767 25.0605C111.982 25.0605 110.164 26.0415 110.164 27.8745C110.164 29.5475 111.628 30.6245 113.268 30.6245C114.522 30.6245 115.214 30.0615 115.648 29.4015H115.712V30.3665H117.514V25.5735C117.515 23.3555 115.857 22.1175 113.719 22.1175ZM113.493 28.9685C112.883 28.9685 112.03 28.6625 112.03 27.9065C112.03 26.9415 113.092 26.5715 114.009 26.5715C114.828 26.5715 115.215 26.7485 115.713 26.9895C115.568 28.1485 114.571 28.9685 113.493 28.9685ZM124.076 22.3905L121.937 27.8105H121.873L119.653 22.3905H117.643L120.972 29.9655L119.074 34.1795H121.02L126.151 22.3905H124.076ZM107.27 30.3885H109.135V17.8875H107.27V30.3885Z" fill="white"/>
<path d="M47.7513 10.6319C47.7513 11.4699 47.5033 12.1369 47.0063 12.6349C46.4423 13.2269 45.7063 13.5229 44.8023 13.5229C43.9363 13.5229 43.1993 13.2229 42.5943 12.6229C41.9883 12.0219 41.6853 11.2779 41.6853 10.3899C41.6853 9.50086 41.9883 8.75686 42.5943 8.15686C43.1993 7.55586 43.9363 7.25586 44.8023 7.25586C45.2323 7.25586 45.6433 7.33986 46.0333 7.50686C46.4243 7.67486 46.7373 7.89786 46.9713 8.17686L46.4443 8.70486C46.0473 8.22986 45.5003 7.99286 44.8013 7.99286C44.1693 7.99286 43.6233 8.21486 43.1623 8.65886C42.7013 9.10286 42.4713 9.67986 42.4713 10.3889C42.4713 11.0979 42.7013 11.6749 43.1623 12.1189C43.6233 12.5629 44.1693 12.7849 44.8013 12.7849C45.4713 12.7849 46.0303 12.5619 46.4773 12.1149C46.7673 11.8239 46.9353 11.4189 46.9803 10.8999H44.8013V10.1789H47.7083C47.7383 10.3359 47.7513 10.4869 47.7513 10.6319Z" fill="white"/>
<path d="M52.3614 8.12592H49.6294V10.0279H52.0934V10.7489H49.6294V12.6509H52.3614V13.3889H48.8584V7.38892H52.3614V8.12592Z" fill="white"/>
<path d="M55.6123 13.3889H54.8413V8.12592H53.1653V7.38892H57.2883V8.12592H55.6123V13.3889Z" fill="white"/>
<path d="M60.2712 13.3889V7.38892H61.0422V13.3889H60.2712Z" fill="white"/>
<path d="M64.4614 13.3889H63.6904V8.12592H62.0144V7.38892H66.1374V8.12592H64.4614V13.3889Z" fill="white"/>
<path d="M73.9422 12.6139C73.3522 13.2199 72.6192 13.5229 71.7422 13.5229C70.8652 13.5229 70.1322 13.2199 69.5432 12.6139C68.9532 12.0079 68.6592 11.2659 68.6592 10.3889C68.6592 9.51191 68.9532 8.76991 69.5432 8.16391C70.1322 7.55791 70.8652 7.25391 71.7422 7.25391C72.6142 7.25391 73.3462 7.55891 73.9382 8.16791C74.5302 8.77691 74.8262 9.51691 74.8262 10.3889C74.8262 11.2659 74.5312 12.0079 73.9422 12.6139ZM70.1122 12.1109C70.5562 12.5609 71.0992 12.7849 71.7422 12.7849C72.3852 12.7849 72.9292 12.5599 73.3722 12.1109C73.8162 11.6609 74.0392 11.0869 74.0392 10.3889C74.0392 9.69091 73.8162 9.11691 73.3722 8.66691C72.9292 8.21691 72.3852 7.99291 71.7422 7.99291C71.0992 7.99291 70.5562 8.21791 70.1122 8.66691C69.6692 9.11691 69.4462 9.69091 69.4462 10.3889C69.4462 11.0869 69.6692 11.6609 70.1122 12.1109Z" fill="white"/>
<path d="M75.9082 13.3889V7.38892H76.8462L79.7622 12.0559H79.7952L79.7622 10.8999V7.38892H80.5332V13.3889H79.7282L76.6772 8.49492H76.6442L76.6772 9.65092V13.3889H75.9082Z" fill="white"/>
<path d="M47.7513 10.6319C47.7513 11.4699 47.5033 12.1369 47.0063 12.6349C46.4423 13.2269 45.7063 13.5229 44.8023 13.5229C43.9363 13.5229 43.1993 13.2229 42.5943 12.6229C41.9883 12.0219 41.6853 11.2779 41.6853 10.3899C41.6853 9.50086 41.9883 8.75686 42.5943 8.15686C43.1993 7.55586 43.9363 7.25586 44.8023 7.25586C45.2323 7.25586 45.6433 7.33986 46.0333 7.50686C46.4243 7.67486 46.7373 7.89786 46.9713 8.17686L46.4443 8.70486C46.0473 8.22986 45.5003 7.99286 44.8013 7.99286C44.1693 7.99286 43.6233 8.21486 43.1623 8.65886C42.7013 9.10286 42.4713 9.67986 42.4713 10.3889C42.4713 11.0979 42.7013 11.6749 43.1623 12.1189C43.6233 12.5629 44.1693 12.7849 44.8013 12.7849C45.4713 12.7849 46.0303 12.5619 46.4773 12.1149C46.7673 11.8239 46.9353 11.4189 46.9803 10.8999H44.8013V10.1789H47.7083C47.7383 10.3359 47.7513 10.4869 47.7513 10.6319Z" stroke="white" stroke-width="0.2" stroke-miterlimit="10"/>
<path d="M52.3614 8.12592H49.6294V10.0279H52.0934V10.7489H49.6294V12.6509H52.3614V13.3889H48.8584V7.38892H52.3614V8.12592Z" stroke="white" stroke-width="0.2" stroke-miterlimit="10"/>
<path d="M55.6123 13.3889H54.8413V8.12592H53.1653V7.38892H57.2883V8.12592H55.6123V13.3889Z" stroke="white" stroke-width="0.2" stroke-miterlimit="10"/>
<path d="M60.2712 13.3889V7.38892H61.0422V13.3889H60.2712Z" stroke="white" stroke-width="0.2" stroke-miterlimit="10"/>
<path d="M64.4614 13.3889H63.6904V8.12592H62.0144V7.38892H66.1374V8.12592H64.4614V13.3889Z" stroke="white" stroke-width="0.2" stroke-miterlimit="10"/>
<path d="M73.9422 12.6139C73.3522 13.2199 72.6192 13.5229 71.7422 13.5229C70.8652 13.5229 70.1322 13.2199 69.5432 12.6139C68.9532 12.0079 68.6592 11.2659 68.6592 10.3889C68.6592 9.51191 68.9532 8.76991 69.5432 8.16391C70.1322 7.55791 70.8652 7.25391 71.7422 7.25391C72.6142 7.25391 73.3462 7.55891 73.9382 8.16791C74.5302 8.77691 74.8262 9.51691 74.8262 10.3889C74.8262 11.2659 74.5312 12.0079 73.9422 12.6139ZM70.1122 12.1109C70.5562 12.5609 71.0992 12.7849 71.7422 12.7849C72.3852 12.7849 72.9292 12.5599 73.3722 12.1109C73.8162 11.6609 74.0392 11.0869 74.0392 10.3889C74.0392 9.69091 73.8162 9.11691 73.3722 8.66691C72.9292 8.21691 72.3852 7.99291 71.7422 7.99291C71.0992 7.99291 70.5562 8.21791 70.1122 8.66691C69.6692 9.11691 69.4462 9.69091 69.4462 10.3889C69.4462 11.0869 69.6692 11.6609 70.1122 12.1109Z" stroke="white" stroke-width="0.2" stroke-miterlimit="10"/>
<path d="M75.9082 13.3889V7.38892H76.8462L79.7622 12.0559H79.7952L79.7622 10.8999V7.38892H80.5332V13.3889H79.7282L76.6772 8.49492H76.6442L76.6772 9.65092V13.3889H75.9082Z" stroke="white" stroke-width="0.2" stroke-miterlimit="10"/>
<g filter="url(#filter0_ii_6000_9237)">
<path d="M10.7693 7.92652C10.4783 8.23452 10.3063 8.71252 10.3063 9.33152V31.4475C10.3063 32.0675 10.4783 32.5445 10.7693 32.8525L10.8433 32.9245L23.2323 20.5355V20.3895V20.2435L10.8433 7.85352L10.7693 7.92652Z" fill="url(#paint0_linear_6000_9237)"/>
<path d="M27.3613 24.6663L23.2323 20.5353V20.3893V20.2433L27.3623 16.1133L27.4553 16.1663L32.3483 18.9463C33.7453 19.7403 33.7453 21.0393 32.3483 21.8343L27.4553 24.6143L27.3613 24.6663Z" fill="url(#paint1_linear_6000_9237)"/>
<g filter="url(#filter1_i_6000_9237)">
<path d="M27.4553 24.6136L23.2313 20.3896L10.7693 32.8526C11.2293 33.3406 11.9903 33.4006 12.8473 32.9146L27.4553 24.6136Z" fill="url(#paint2_linear_6000_9237)"/>
</g>
<path d="M27.4553 16.1654L12.8473 7.86537C11.9903 7.37837 11.2293 7.43937 10.7693 7.92737L23.2323 20.3904L27.4553 16.1654Z" fill="url(#paint3_linear_6000_9237)"/>
</g>
<defs>
<filter id="filter0_ii_6000_9237" x="10.3063" y="7.5293" width="23.0897" height="25.7207" filterUnits="userSpaceOnUse" color-interpolation-filters="sRGB">
<feFlood flood-opacity="0" result="BackgroundImageFix"/>
<feBlend mode="normal" in="SourceGraphic" in2="BackgroundImageFix" result="shape"/>
<feColorMatrix in="SourceAlpha" type="matrix" values="0 0 0 0 0 0 0 0 0 0 0 0 0 0 0 0 0 0 127 0" result="hardAlpha"/>
<feOffset dy="-0.15"/>
<feComposite in2="hardAlpha" operator="arithmetic" k2="-1" k3="1"/>
<feColorMatrix type="matrix" values="0 0 0 0 0 0 0 0 0 0 0 0 0 0 0 0 0 0 0.12 0"/>
<feBlend mode="normal" in2="shape" result="effect1_innerShadow_6000_9237"/>
<feColorMatrix in="SourceAlpha" type="matrix" values="0 0 0 0 0 0 0 0 0 0 0 0 0 0 0 0 0 0 127 0" result="hardAlpha"/>
<feOffset dy="0.15"/>
<feComposite in2="hardAlpha" operator="arithmetic" k2="-1" k3="1"/>
<feColorMatrix type="matrix" values="0 0 0 0 1 0 0 0 0 1 0 0 0 0 1 0 0 0 0.25 0"/>
<feBlend mode="normal" in2="effect1_innerShadow_6000_9237" result="effect2_innerShadow_6000_9237"/>
</filter>
<filter id="filter1_i_6000_9237" x="10.7693" y="20.3896" width="16.686" height="12.8604" filterUnits="userSpaceOnUse" color-interpolation-filters="sRGB">
<feFlood flood-opacity="0" result="BackgroundImageFix"/>
<feBlend mode="normal" in="SourceGraphic" in2="BackgroundImageFix" result="shape"/>
<feColorMatrix in="SourceAlpha" type="matrix" values="0 0 0 0 0 0 0 0 0 0 0 0 0 0 0 0 0 0 127 0" result="hardAlpha"/>
<feOffset dy="-0.15"/>
<feComposite in2="hardAlpha" operator="arithmetic" k2="-1" k3="1"/>
<feColorMatrix type="matrix" values="0 0 0 0 0 0 0 0 0 0 0 0 0 0 0 0 0 0 0.08 0"/>
<feBlend mode="normal" in2="shape" result="effect1_innerShadow_6000_9237"/>
</filter>
<linearGradient id="paint0_linear_6000_9237" x1="22.1341" y1="9.09752" x2="5.35208" y2="25.8795" gradientUnits="userSpaceOnUse">
<stop stop-color="#00A0FF"/>
<stop offset="0.0066" stop-color="#00A1FF"/>
<stop offset="0.2601" stop-color="#00BEFF"/>
<stop offset="0.5122" stop-color="#00D2FF"/>
<stop offset="0.7604" stop-color="#00DFFF"/>
<stop offset="1" stop-color="#00E3FF"/>
</linearGradient>
<linearGradient id="paint1_linear_6000_9237" x1="34.1668" y1="20.3893" x2="9.9709" y2="20.3893" gradientUnits="userSpaceOnUse">
<stop stop-color="#FFE000"/>
<stop offset="0.4087" stop-color="#FFBD00"/>
<stop offset="0.7754" stop-color="#FFA500"/>
<stop offset="1" stop-color="#FF9C00"/>
</linearGradient>
<linearGradient id="paint2_linear_6000_9237" x1="25.1614" y1="22.6835" x2="2.40289" y2="45.4421" gradientUnits="userSpaceOnUse">
<stop stop-color="#FF3A44"/>
<stop offset="1" stop-color="#C31162"/>
</linearGradient>
<linearGradient id="paint3_linear_6000_9237" x1="7.63069" y1="0.565173" x2="17.793" y2="10.7275" gradientUnits="userSpaceOnUse">
<stop stop-color="#32A071"/>
<stop offset="0.0685" stop-color="#2DA771"/>
<stop offset="0.4762" stop-color="#15CF74"/>
<stop offset="0.8009" stop-color="#06E775"/>
<stop offset="1" stop-color="#00F076"/>
</linearGradient>
</defs>
</svg>
