<svg width="15" height="15" viewBox="0 0 15 15" fill="none" xmlns="http://www.w3.org/2000/svg">
<path d="M10.8678 2.7499H3.5161L4.66499 1.60101C4.84222 1.42378 4.84222 1.13045 4.66499 0.953229C4.48777 0.776007 4.19444 0.776007 4.01722 0.953229L2.0861 2.88434C2.04333 2.92712 2.01277 2.97601 1.98833 3.03101C1.96388 3.08601 1.95166 3.14712 1.95166 3.20823C1.95166 3.26934 1.96388 3.33045 1.98833 3.38545C2.01277 3.44045 2.04333 3.48934 2.0861 3.53212L4.01722 5.46323C4.10888 5.5549 4.22499 5.59767 4.3411 5.59767C4.45722 5.59767 4.57333 5.5549 4.66499 5.46323C4.84222 5.28601 4.84222 4.99267 4.66499 4.81545L3.5161 3.66656H10.8678C11.6255 3.66656 12.2428 4.28378 12.2428 5.04156V7.07045C12.2428 7.32101 12.4505 7.52878 12.7011 7.52878C12.9517 7.52878 13.1594 7.32101 13.1594 7.07045V5.04156C13.1594 3.77656 12.1328 2.7499 10.8678 2.7499Z" fill="#525252"/>
<path d="M13.1594 11.5676C13.1594 11.5065 13.1472 11.4454 13.1228 11.3904C13.0983 11.3354 13.0678 11.2865 13.025 11.2437L11.0939 9.31263C10.9167 9.1354 10.6233 9.1354 10.4461 9.31263C10.2689 9.48985 10.2689 9.78318 10.4461 9.9604L11.595 11.1093H4.24333C3.48555 11.1093 2.86833 10.4921 2.86833 9.73429V7.7054C2.86833 7.45485 2.66055 7.24707 2.40999 7.24707C2.15944 7.24707 1.95166 7.45485 1.95166 7.7054V9.73429C1.95166 10.9993 2.97833 12.026 4.24333 12.026H11.595L10.4461 13.1748C10.2689 13.3521 10.2689 13.6454 10.4461 13.8226C10.5378 13.9143 10.6539 13.9571 10.77 13.9571C10.8861 13.9571 11.0022 13.9143 11.0939 13.8226L13.025 11.8915C13.0678 11.8487 13.0983 11.7998 13.1228 11.7448C13.1472 11.6898 13.1594 11.6287 13.1594 11.5676Z" fill="#525252"/>
</svg>
