<svg width="12" height="12" viewBox="0 0 12 12" fill="none" xmlns="http://www.w3.org/2000/svg">
<path id="&#239;&#149;&#142;" d="M11.7077 2.73438C12.3523 3.74414 11.7937 5.14062 10.5905 5.3125C10.5046 5.3125 10.4187 5.3125 10.3327 5.3125C9.77414 5.3125 9.28 5.07617 8.93625 4.68945C8.5925 5.07617 8.09836 5.3125 7.53977 5.3125C6.98117 5.3125 6.46555 5.07617 6.1218 4.68945C5.79953 5.07617 5.28391 5.3125 4.72531 5.3125C4.16672 5.3125 3.67258 5.07617 3.32883 4.68945C2.98508 5.07617 2.49094 5.3125 1.93235 5.3125C1.84641 5.3125 1.76047 5.3125 1.67453 5.3125C0.471407 5.14062 -0.0871863 3.74414 0.557345 2.73438L1.78195 0.800781C1.88938 0.607422 2.08274 0.5 2.29758 0.5H9.9675C10.1823 0.5 10.3757 0.607422 10.4831 0.800781L11.7077 2.73438ZM10.6765 5.97852C10.7839 5.97852 10.8698 5.95703 10.9558 5.93555V8.75V10.125C10.9558 10.8984 10.3327 11.5 9.58078 11.5H2.70578C1.93235 11.5 1.33078 10.8984 1.33078 10.125V8.75V5.93555C1.39524 5.95703 1.48117 5.97852 1.5886 5.97852C1.69602 6 1.80344 6 1.93235 6C2.19016 6 2.44797 5.97852 2.70578 5.89258V8.75H9.58078V5.89258C9.81711 5.97852 10.0749 6 10.3327 6C10.4402 6 10.5691 6 10.6765 5.97852Z" fill="#9AA4B2"/>
</svg>
