<svg width="40" height="46" viewBox="0 0 40 46" fill="none" xmlns="http://www.w3.org/2000/svg">
<path id="&#239;&#139;&#167;" d="M36.595 0C38.0905 0 39.41 1.31953 39.41 2.815V21.1125V30.965V42.225C39.41 43.8084 38.0905 45.04 36.595 45.04C35.0116 45.04 33.78 43.8084 33.78 42.225V30.965H30.965C27.7981 30.965 25.335 28.5019 25.335 25.335V15.4825C25.335 2.815 35.1875 0 36.595 0ZM5.63 1.4075V13.2833C5.63 13.7231 5.98188 14.075 6.42172 14.075C6.94953 14.075 7.30141 13.8111 7.30141 13.2833L8.445 1.31953C8.445 0.615781 9.06078 0 9.8525 0C10.5562 0 11.172 0.615781 11.172 1.31953L12.3156 13.2833C12.3156 13.8111 12.7555 14.075 13.1953 14.075C13.6352 14.075 14.075 13.7231 14.075 13.2833V1.4075C14.075 0.70375 14.6028 0.0879688 15.3066 0.0879688C16.0103 5.57803e-09 16.6261 0.439844 16.802 1.14359L19.4411 13.1073C19.617 13.7231 19.705 14.2509 19.705 14.7788C19.705 18.8253 16.5381 22.1681 12.6675 22.52V42.225C12.6675 43.8084 11.348 45.04 9.8525 45.04C8.26906 45.04 7.0375 43.8084 7.0375 42.225V22.52C3.07891 22.1681 0 18.8253 0 14.7788C0 14.2509 1.11561e-08 13.7231 0.175938 13.1073L2.815 1.14359C2.99094 0.439844 3.60672 5.57803e-09 4.31047 0.0879688C5.01422 0.0879688 5.63 0.70375 5.63 1.4075ZM9.8525 14.7788H9.76453H9.8525Z" fill="#F3A694"/>
</svg>
