<svg width="15" height="16" viewBox="0 0 15 16" fill="none" xmlns="http://www.w3.org/2000/svg">
<g clip-path="url(#clip0_2123_26124)">
<path d="M7.49917 12.8438H5.82417C5.09917 12.8438 4.46792 12.4062 4.21792 11.7312C3.96167 11.0562 4.14917 10.3125 4.69292 9.83125L9.68667 5.4625C9.98667 5.2 9.99292 4.84375 9.90542 4.6C9.81167 4.35625 9.57417 4.09375 9.17417 4.09375H7.49917C7.24292 4.09375 7.03042 3.88125 7.03042 3.625C7.03042 3.36875 7.24292 3.15625 7.49917 3.15625H9.17417C9.89917 3.15625 10.5304 3.59375 10.7804 4.26875C11.0367 4.94375 10.8492 5.6875 10.3054 6.16875L5.31167 10.5375C5.01167 10.8 5.00542 11.1563 5.09292 11.4C5.18667 11.6438 5.42417 11.9062 5.82417 11.9062H7.49917C7.75542 11.9062 7.96792 12.1188 7.96792 12.375C7.96792 12.6312 7.75542 12.8438 7.49917 12.8438Z" fill="#990001"/>
<path d="M12.4993 9.875H10.6243C9.93677 9.875 9.37427 10.4375 9.37427 11.125V13C9.37427 13.6875 9.93677 14.25 10.6243 14.25H12.4993C13.1868 14.25 13.7493 13.6875 13.7493 13V11.125C13.7493 10.4375 13.1868 9.875 12.4993 9.875ZM11.568 12.6875C11.2243 12.6875 10.943 12.4063 10.943 12.0625C10.943 11.7187 11.218 11.4375 11.568 11.4375H11.5743C11.918 11.4375 12.1993 11.7187 12.1993 12.0625C12.1993 12.4063 11.918 12.6875 11.568 12.6875Z" fill="#990001"/>
<path d="M3.41797 1.75C2.21172 1.75 1.23047 2.73125 1.23047 3.9375C1.23047 5.14375 2.21172 6.125 3.41797 6.125C4.62422 6.125 5.60547 5.14375 5.60547 3.9375C5.60547 2.73125 4.63047 1.75 3.41797 1.75ZM3.44297 4.5625C3.09922 4.5625 2.81797 4.28125 2.81797 3.9375C2.81797 3.59375 3.09297 3.3125 3.44297 3.3125H3.44922C3.79297 3.3125 4.07422 3.59375 4.07422 3.9375C4.07422 4.28125 3.79297 4.5625 3.44297 4.5625Z" fill="#990001"/>
</g>
<defs>
<clipPath id="clip0_2123_26124">
<rect width="15" height="15" fill="white" transform="translate(0 0.5)"/>
</clipPath>
</defs>
</svg>
