<svg width="20" height="20" viewBox="0 0 20 20" fill="none" xmlns="http://www.w3.org/2000/svg">
<g clip-path="url(#clip0_2123_26066)">
<rect x="13.3335" y="10.833" width="5" height="5" rx="2.5" stroke="#990001" stroke-width="1.875"/>
<path d="M9.1665 13.3333V12.0833C9.1665 10.512 9.1665 9.72631 8.67835 9.23816C8.19019 8.75 7.40452 8.75 5.83317 8.75H5.33317C5.02364 8.75 4.86887 8.75 4.73831 8.76028C3.10372 8.88892 1.80542 10.1872 1.67678 11.8218C1.6665 11.9524 1.6665 12.1071 1.6665 12.4167C1.6665 12.4941 1.6665 12.5327 1.66907 12.5654C1.70123 12.974 2.02581 13.2986 2.43445 13.3308C2.4671 13.3333 2.50579 13.3333 2.58317 13.3333H9.1665ZM9.1665 13.3333H13.3332" stroke="#990001" stroke-width="1.875" stroke-linecap="round"/>
<path d="M7.9165 13.333C7.9165 14.7137 6.79722 15.833 5.4165 15.833C4.03579 15.833 2.9165 14.7137 2.9165 13.333" stroke="#990001" stroke-width="1.875" stroke-linecap="round"/>
<path d="M10 4.16699H10.4399C11.4422 4.16699 11.9434 4.16699 12.3462 4.41591C12.7489 4.66482 12.973 5.11309 13.4213 6.00961L15.8333 10.8337" stroke="#990001" stroke-width="1.875" stroke-linecap="round"/>
<path d="M15.1188 9.16667L15.6869 8.74816C15.906 8.58679 16.0155 8.5061 16.0916 8.40092C16.1435 8.32933 16.1836 8.24995 16.2105 8.16575C16.25 8.04205 16.25 7.90601 16.25 7.63393C16.25 7.1194 16.25 6.86213 16.1403 6.67004C16.0664 6.54073 15.9593 6.43357 15.83 6.35971C15.6379 6.25 15.3806 6.25 14.8661 6.25H13.75" stroke="#990001" stroke-width="1.875" stroke-linecap="round"/>
<circle cx="15.8335" cy="13.333" r="2.5" stroke="#990001" stroke-width="1.875"/>
</g>
<defs>
<clipPath id="clip0_2123_26066">
<rect width="20" height="20" rx="3.75" fill="white"/>
</clipPath>
</defs>
</svg>
