<svg width="25" height="24" viewBox="0 0 25 24" fill="none" xmlns="http://www.w3.org/2000/svg">
<g opacity="0.7">
<path fill-rule="evenodd" clip-rule="evenodd" d="M14.2034 5.78336C13.8897 5.75093 13.4838 5.75 12.867 5.75H12.3391C11.9249 5.75 11.5891 5.41422 11.5891 5C11.5891 4.58579 11.9249 4.25 12.3391 4.25L12.9039 4.25C13.4738 4.24998 13.9578 4.24997 14.3577 4.29132C14.7835 4.33534 15.177 4.43094 15.5488 4.66071C15.9206 4.89048 16.1821 5.19971 16.4119 5.56088C16.6145 5.87933 16.8177 6.2803 17.0526 6.75L18.2074 6.75C18.4912 6.74998 18.7518 6.74996 18.969 6.76947C19.2036 6.79055 19.4594 6.83898 19.707 6.98039C19.9786 7.13549 20.2036 7.36052 20.3587 7.63209C20.5002 7.87968 20.5486 8.13549 20.5697 8.37017C20.5892 8.58733 20.5891 8.84795 20.5891 9.13178V9.16072L20.5892 9.22526C20.5898 9.48503 20.5905 9.76315 20.5062 10.0271C20.4497 10.2039 20.3654 10.3706 20.2566 10.521C20.0941 10.7454 19.8698 10.9098 19.6603 11.0634L19.6083 11.1016L19.3307 11.3061L19.8178 12.2803C21.6628 12.5153 23.0891 14.0911 23.0891 16C23.0891 18.0711 21.4102 19.75 19.3391 19.75C17.5249 19.75 16.0116 18.4617 15.6641 16.75H10.5141C10.1667 18.4617 8.65335 19.75 6.83913 19.75C5.02175 19.75 3.50633 18.4572 3.16234 16.7411C2.32283 16.6561 1.66102 15.9823 1.59452 15.1373C1.58903 15.0675 1.58908 14.992 1.58912 14.9193L1.58913 14.9L1.58913 14.8619C1.58911 14.5269 1.58909 14.3138 1.60377 14.1273C1.78709 11.798 3.63716 9.94796 5.96645 9.76464C6.15293 9.74997 6.36598 9.74998 6.70102 9.75L6.73913 9.75L7.39112 9.75C8.2896 9.74997 9.03882 9.74995 9.63361 9.82991C10.2614 9.91432 10.8282 10.1 11.2837 10.5555C11.7391 11.0109 11.9248 11.5777 12.0092 12.2055C12.0892 12.8003 12.0892 13.5495 12.0891 14.448L12.0891 15.25H15.6641C15.9364 13.9089 16.9243 12.8277 18.2118 12.4224L15.7739 7.54656C15.498 6.99487 15.3157 6.6322 15.1464 6.36612C14.9864 6.1147 14.8718 6.00562 14.7602 5.93669C14.6487 5.86776 14.4999 5.81401 14.2034 5.78336ZM10.5891 15.25V14.5C10.5891 13.536 10.5875 12.8884 10.5226 12.4054C10.4605 11.9439 10.3533 11.7464 10.223 11.6161C10.0927 11.4858 9.8952 11.3786 9.43373 11.3165C8.9507 11.2516 8.30314 11.25 7.33913 11.25H6.73913C6.35342 11.25 6.20403 11.2506 6.08413 11.26C4.49041 11.3854 3.22457 12.6513 3.09915 14.245C3.08971 14.3649 3.08913 14.5143 3.08913 14.9C3.08913 14.9485 3.08914 14.9773 3.08944 14.9991C3.09944 15.121 3.21811 15.2397 3.34004 15.2497L10.5891 15.25ZM4.71716 16.75C5.02603 17.6239 5.85946 18.25 6.83913 18.25C7.81879 18.25 8.65222 17.6239 8.9611 16.75H4.71716ZM17.0891 16C17.0891 14.7574 18.0965 13.75 19.3391 13.75C20.5818 13.75 21.5891 14.7574 21.5891 16C21.5891 17.2426 20.5818 18.25 19.3391 18.25C18.0965 18.25 17.0891 17.2426 17.0891 16ZM18.6499 9.94453L18.7186 9.89396C18.8569 9.79207 18.9346 9.73441 18.9908 9.68765C19.0255 9.65883 19.0384 9.645 19.0417 9.64114C19.0572 9.61969 19.0692 9.59591 19.0773 9.5707C19.0753 9.57695 19.0807 9.56642 19.0845 9.50229C19.0888 9.42932 19.0891 9.3325 19.0891 9.16072C19.0891 8.83832 19.0884 8.64622 19.0757 8.50439C19.068 8.41867 19.0579 8.38291 19.0545 8.3731C19.033 8.33658 19.0026 8.30612 18.966 8.2846C18.9562 8.28121 18.9205 8.27115 18.8347 8.26345C18.6929 8.25071 18.5008 8.25 18.1784 8.25H17.8027L18.6499 9.94453Z" fill="white"/>
</g>
</svg>
