<svg width="20" height="20" viewBox="0 0 20 20" fill="none" xmlns="http://www.w3.org/2000/svg">
<path d="M13.7188 8.03125C13.7188 6.13867 12.6895 4.41211 11.0625 3.44922C9.40234 2.48633 7.37695 2.48633 5.75 3.44922C4.08984 4.41211 3.09375 6.13867 3.09375 8.03125C3.09375 9.95703 4.08984 11.6836 5.75 12.6465C7.37695 13.6094 9.40234 13.6094 11.0625 12.6465C12.6895 11.6836 13.7188 9.95703 13.7188 8.03125ZM12.6895 13.4766C11.4941 14.4062 10 14.9375 8.40625 14.9375C4.58789 14.9375 1.5 11.8496 1.5 8.03125C1.5 4.24609 4.58789 1.125 8.40625 1.125C12.1914 1.125 15.3125 4.24609 15.3125 8.03125C15.3125 9.6582 14.748 11.1523 13.8184 12.3477L18.2676 16.7637C18.5664 17.0957 18.5664 17.5938 18.2676 17.8926C17.9355 18.2246 17.4375 18.2246 17.1387 17.8926L12.6895 13.4766Z" fill="#990001"/>
</svg>
