<svg width="24" height="25" viewBox="0 0 24 25" fill="none" xmlns="http://www.w3.org/2000/svg">
<g clip-path="url(#clip0_6000_9256)">
<path d="M12 2.54961C15.2063 2.54961 15.5859 2.56367 16.8469 2.61992C18.0188 2.67148 18.6516 2.86836 19.0734 3.03242C19.6313 3.24805 20.0344 3.51055 20.4516 3.92773C20.8734 4.34961 21.1313 4.74805 21.3469 5.30586C21.5109 5.72773 21.7078 6.36523 21.7594 7.53242C21.8156 8.79805 21.8297 9.17773 21.8297 12.3793C21.8297 15.5855 21.8156 15.9652 21.7594 17.2262C21.7078 18.398 21.5109 19.0309 21.3469 19.4527C21.1313 20.0105 20.8687 20.4137 20.4516 20.8309C20.0297 21.2527 19.6313 21.5105 19.0734 21.7262C18.6516 21.8902 18.0141 22.0871 16.8469 22.1387C15.5813 22.1949 15.2016 22.209 12 22.209C8.79375 22.209 8.41406 22.1949 7.15313 22.1387C5.98125 22.0871 5.34844 21.8902 4.92656 21.7262C4.36875 21.5105 3.96563 21.248 3.54844 20.8309C3.12656 20.409 2.86875 20.0105 2.65313 19.4527C2.48906 19.0309 2.29219 18.3934 2.24063 17.2262C2.18438 15.9605 2.17031 15.5809 2.17031 12.3793C2.17031 9.17305 2.18438 8.79336 2.24063 7.53242C2.29219 6.36055 2.48906 5.72773 2.65313 5.30586C2.86875 4.74805 3.13125 4.34492 3.54844 3.92773C3.97031 3.50586 4.36875 3.24805 4.92656 3.03242C5.34844 2.86836 5.98594 2.67148 7.15313 2.61992C8.41406 2.56367 8.79375 2.54961 12 2.54961ZM12 0.388672C8.74219 0.388672 8.33438 0.402734 7.05469 0.458984C5.77969 0.515234 4.90313 0.721484 4.14375 1.0168C3.35156 1.32617 2.68125 1.73398 2.01563 2.4043C1.34531 3.06992 0.9375 3.74023 0.628125 4.52773C0.332812 5.2918 0.126563 6.16367 0.0703125 7.43867C0.0140625 8.72305 0 9.13086 0 12.3887C0 15.6465 0.0140625 16.0543 0.0703125 17.334C0.126563 18.609 0.332812 19.4855 0.628125 20.2449C0.9375 21.0371 1.34531 21.7074 2.01563 22.373C2.68125 23.0387 3.35156 23.4512 4.13906 23.7559C4.90313 24.0512 5.775 24.2574 7.05 24.3137C8.32969 24.3699 8.7375 24.384 11.9953 24.384C15.2531 24.384 15.6609 24.3699 16.9406 24.3137C18.2156 24.2574 19.0922 24.0512 19.8516 23.7559C20.6391 23.4512 21.3094 23.0387 21.975 22.373C22.6406 21.7074 23.0531 21.0371 23.3578 20.2496C23.6531 19.4855 23.8594 18.6137 23.9156 17.3387C23.9719 16.059 23.9859 15.6512 23.9859 12.3934C23.9859 9.13555 23.9719 8.72773 23.9156 7.44805C23.8594 6.17305 23.6531 5.29648 23.3578 4.53711C23.0625 3.74023 22.6547 3.06992 21.9844 2.4043C21.3188 1.73867 20.6484 1.32617 19.8609 1.02148C19.0969 0.726172 18.225 0.519922 16.95 0.463672C15.6656 0.402734 15.2578 0.388672 12 0.388672Z" fill="#98A2B3"/>
<path d="M12 6.22461C8.59688 6.22461 5.83594 8.98555 5.83594 12.3887C5.83594 15.7918 8.59688 18.5527 12 18.5527C15.4031 18.5527 18.1641 15.7918 18.1641 12.3887C18.1641 8.98555 15.4031 6.22461 12 6.22461ZM12 16.3871C9.79219 16.3871 8.00156 14.5965 8.00156 12.3887C8.00156 10.1809 9.79219 8.39023 12 8.39023C14.2078 8.39023 15.9984 10.1809 15.9984 12.3887C15.9984 14.5965 14.2078 16.3871 12 16.3871Z" fill="#98A2B3"/>
<path d="M19.8469 5.98106C19.8469 6.77793 19.2 7.42012 18.4078 7.42012C17.6109 7.42012 16.9688 6.77324 16.9688 5.98106C16.9688 5.18418 17.6156 4.54199 18.4078 4.54199C19.2 4.54199 19.8469 5.18887 19.8469 5.98106Z" fill="#98A2B3"/>
</g>
<defs>
<clipPath id="clip0_6000_9256">
<rect width="24" height="24" fill="white" transform="translate(0 0.388672)"/>
</clipPath>
</defs>
</svg>
