<svg width="24" height="25" viewBox="0 0 24 25" fill="none" xmlns="http://www.w3.org/2000/svg">
<g clip-path="url(#clip0_6000_9254)">
<path d="M24 12.3887C24 5.76125 18.6274 0.388672 12 0.388672C5.37258 0.388672 0 5.76125 0 12.3887C0 18.3781 4.3882 23.3427 10.125 24.2429V15.8574H7.07812V12.3887H10.125V9.74492C10.125 6.73742 11.9166 5.07617 14.6576 5.07617C15.9701 5.07617 17.3438 5.31055 17.3438 5.31055V8.26367H15.8306C14.34 8.26367 13.875 9.18875 13.875 10.1387V12.3887H17.2031L16.6711 15.8574H13.875V24.2429C19.6118 23.3427 24 18.3781 24 12.3887Z" fill="#98A2B3"/>
</g>
<defs>
<clipPath id="clip0_6000_9254">
<rect width="24" height="24" fill="white" transform="translate(0 0.388672)"/>
</clipPath>
</defs>
</svg>
