<svg width="24" height="25" viewBox="0 0 24 25" fill="none" xmlns="http://www.w3.org/2000/svg">
<g clip-path="url(#clip0_6000_9251)">
<path d="M22.2234 0.388672H1.77187C0.792187 0.388672 0 1.16211 0 2.11836V22.6543C0 23.6105 0.792187 24.3887 1.77187 24.3887H22.2234C23.2031 24.3887 24 23.6105 24 22.659V2.11836C24 1.16211 23.2031 0.388672 22.2234 0.388672ZM7.12031 20.8402H3.55781V9.38398H7.12031V20.8402ZM5.33906 7.82305C4.19531 7.82305 3.27188 6.89961 3.27188 5.76055C3.27188 4.62148 4.19531 3.69805 5.33906 3.69805C6.47813 3.69805 7.40156 4.62148 7.40156 5.76055C7.40156 6.89492 6.47813 7.82305 5.33906 7.82305ZM20.4516 20.8402H16.8937V15.2715C16.8937 13.9449 16.8703 12.234 15.0422 12.234C13.1906 12.234 12.9094 13.6824 12.9094 15.1777V20.8402H9.35625V9.38398H12.7687V10.9496H12.8156C13.2891 10.0496 14.4516 9.09805 16.1813 9.09805C19.7859 9.09805 20.4516 11.4699 20.4516 14.5543V20.8402Z" fill="#98A2B3"/>
</g>
<defs>
<clipPath id="clip0_6000_9251">
<rect width="24" height="24" fill="white" transform="translate(0 0.388672)"/>
</clipPath>
</defs>
</svg>
