<svg width="13" height="13" viewBox="0 0 13 13" fill="none" xmlns="http://www.w3.org/2000/svg">
<g clip-path="url(#clip0_2144_62438)">
<path d="M6.3231 1.35445C6.42558 1.10807 6.77461 1.10807 6.87709 1.35446L8.11675 4.33494C8.15995 4.43881 8.25763 4.50978 8.36977 4.51877L11.5875 4.77673C11.8535 4.79806 11.9613 5.13001 11.7586 5.30361L9.30711 7.40361C9.22168 7.4768 9.18436 7.59163 9.21047 7.70106L9.95945 10.841C10.0214 11.1005 9.73899 11.3057 9.51126 11.1666L6.75647 9.48399C6.66047 9.42535 6.53973 9.42535 6.44372 9.48399L3.68893 11.1666C3.4612 11.3057 3.17883 11.1005 3.24074 10.841L3.98973 7.70106C4.01583 7.59163 3.97852 7.4768 3.89308 7.40361L1.44154 5.30361C1.23888 5.13001 1.34674 4.79806 1.61274 4.77673L4.83042 4.51877C4.94256 4.50978 5.04024 4.43881 5.08345 4.33494L6.3231 1.35445Z" fill="#F2F4F7"/>
<g clip-path="url(#clip1_2144_62438)">
<path d="M6.3231 1.35445C6.42558 1.10807 6.77461 1.10807 6.87709 1.35446L8.11675 4.33494C8.15995 4.43881 8.25763 4.50978 8.36977 4.51877L11.5875 4.77673C11.8535 4.79806 11.9613 5.13001 11.7586 5.30361L9.30711 7.40361C9.22168 7.4768 9.18436 7.59163 9.21047 7.70106L9.95945 10.841C10.0214 11.1005 9.73899 11.3057 9.51126 11.1666L6.75647 9.48399C6.66047 9.42535 6.53973 9.42535 6.44372 9.48399L3.68893 11.1666C3.4612 11.3057 3.17883 11.1005 3.24074 10.841L3.98973 7.70106C4.01583 7.59163 3.97852 7.4768 3.89308 7.40361L1.44154 5.30361C1.23888 5.13001 1.34674 4.79806 1.61274 4.77673L4.83042 4.51877C4.94256 4.50978 5.04024 4.43881 5.08345 4.33494L6.3231 1.35445Z" fill="#FDB022"/>
</g>
</g>
<defs>
<clipPath id="clip0_2144_62438">
<rect width="12" height="12" fill="white" transform="translate(0.600098 0.388672)"/>
</clipPath>
<clipPath id="clip1_2144_62438">
<rect width="12" height="12" fill="white" transform="translate(0.600098 0.388672)"/>
</clipPath>
</defs>
</svg>
