<svg width="121" height="40" viewBox="0 0 121 40" fill="none" xmlns="http://www.w3.org/2000/svg">
<rect x="0.5" width="120" height="40" rx="6" fill="black"/>
<path d="M25.2045 20.763C25.2166 19.8431 25.4669 18.9411 25.9321 18.141C26.3972 17.3409 27.0621 16.6687 27.8648 16.1869C27.3548 15.4758 26.6821 14.8907 25.9 14.4779C25.1178 14.065 24.2479 13.836 23.3592 13.8088C21.4635 13.6146 19.6258 14.9163 18.6598 14.9163C17.6751 14.9163 16.1878 13.8281 14.5862 13.8603C13.5502 13.893 12.5406 14.1871 11.6557 14.714C10.7708 15.2408 10.0407 15.9825 9.53674 16.8668C7.35352 20.5571 8.98201 25.9808 11.0734 28.9639C12.1197 30.4246 13.3426 32.0562 14.9428 31.9984C16.5086 31.9349 17.0934 31.0235 18.9835 31.0235C20.8561 31.0235 21.4048 31.9984 23.0374 31.9616C24.7176 31.9349 25.7762 30.4944 26.7859 29.0198C27.5377 27.979 28.1162 26.8287 28.5 25.6115C27.5238 25.2084 26.6908 24.5337 26.1048 23.6715C25.5187 22.8093 25.2056 21.7977 25.2045 20.763Z" fill="white"/>
<path d="M22.1208 11.8471C23.0369 10.7734 23.4883 9.39335 23.379 8C21.9793 8.14352 20.6865 8.7966 19.758 9.82911C19.304 10.3335 18.9563 10.9203 18.7348 11.556C18.5132 12.1917 18.4222 12.8638 18.4669 13.5338C19.1669 13.5408 19.8595 13.3927 20.4924 13.1005C21.1253 12.8084 21.6821 12.3798 22.1208 11.8471Z" fill="white"/>
<path d="M37.291 8.50146H39.3608C40.2456 8.50146 40.9092 8.75635 41.3516 9.26611C41.7969 9.77588 42.0195 10.5186 42.0195 11.4941C42.0195 12.4697 41.7969 13.2153 41.3516 13.731C40.9062 14.2437 40.2427 14.5 39.3608 14.5H37.291V8.50146ZM38.2886 9.34082V13.6606H39.251C39.8428 13.6606 40.2808 13.4819 40.5649 13.1245C40.8521 12.7671 40.9956 12.228 40.9956 11.5073C40.9956 10.7808 40.8521 10.2388 40.5649 9.88135C40.2778 9.521 39.8398 9.34082 39.251 9.34082H38.2886ZM45.1748 9.77588C45.79 9.77588 46.2866 9.96338 46.6646 10.3384C47.0454 10.7134 47.2358 11.2231 47.2358 11.8677V12.4697C47.2358 13.1318 47.0469 13.6489 46.6689 14.021C46.291 14.3931 45.793 14.5791 45.1748 14.5791C44.5479 14.5791 44.0454 14.3945 43.6675 14.0254C43.2925 13.6562 43.105 13.1392 43.105 12.4741V11.8721C43.105 11.2422 43.2969 10.7354 43.6807 10.3516C44.0645 9.96777 44.5625 9.77588 45.1748 9.77588ZM45.1792 10.5625C44.8394 10.5625 44.5728 10.6899 44.3794 10.9448C44.186 11.1968 44.0894 11.522 44.0894 11.9204V12.439C44.0894 12.8433 44.1831 13.1699 44.3706 13.4189C44.561 13.668 44.8306 13.7925 45.1792 13.7925C45.5249 13.7925 45.79 13.668 45.9746 13.4189C46.1621 13.1699 46.2559 12.8433 46.2559 12.439V11.9204C46.2559 11.519 46.1606 11.1924 45.9702 10.9404C45.7798 10.6885 45.5161 10.5625 45.1792 10.5625ZM54.3989 9.85498L53.1772 14.5H52.1841L51.2129 11.0723H51.1865L50.2329 14.5H49.2354L47.9609 9.85498H49.0112L49.7583 13.397H49.8022L50.7383 9.85498H51.6567L52.6191 13.397H52.6631L53.4233 9.85498H54.3989ZM55.3657 14.5V9.85498H56.3237V10.6899H56.3721C56.3984 10.6079 56.4307 10.5303 56.4688 10.457C56.5098 10.3809 56.5684 10.3003 56.6445 10.2153C56.7207 10.1304 56.8071 10.0586 56.9038 10C57.0005 9.93848 57.1235 9.88721 57.2729 9.84619C57.4253 9.80518 57.5908 9.78467 57.7695 9.78467C58.2529 9.78467 58.6338 9.91943 58.9121 10.189C59.1934 10.4556 59.334 10.8467 59.334 11.3623V14.5H58.3584V11.6479C58.3584 11.3052 58.2764 11.0474 58.1123 10.8745C57.9482 10.7017 57.7241 10.6152 57.4399 10.6152C57.0913 10.6152 56.8203 10.7354 56.627 10.9756C56.4365 11.2158 56.3413 11.5308 56.3413 11.9204V14.5H55.3657ZM60.8105 14.5V8.18506H61.7861V14.5H60.8105ZM65.1348 9.77588C65.75 9.77588 66.2466 9.96338 66.6245 10.3384C67.0054 10.7134 67.1958 11.2231 67.1958 11.8677V12.4697C67.1958 13.1318 67.0068 13.6489 66.6289 14.021C66.251 14.3931 65.7529 14.5791 65.1348 14.5791C64.5078 14.5791 64.0054 14.3945 63.6274 14.0254C63.2524 13.6562 63.0649 13.1392 63.0649 12.4741V11.8721C63.0649 11.2422 63.2568 10.7354 63.6406 10.3516C64.0244 9.96777 64.5225 9.77588 65.1348 9.77588ZM65.1392 10.5625C64.7993 10.5625 64.5327 10.6899 64.3394 10.9448C64.146 11.1968 64.0493 11.522 64.0493 11.9204V12.439C64.0493 12.8433 64.1431 13.1699 64.3306 13.4189C64.521 13.668 64.7905 13.7925 65.1392 13.7925C65.4849 13.7925 65.75 13.668 65.9346 13.4189C66.1221 13.1699 66.2158 12.8433 66.2158 12.439V11.9204C66.2158 11.519 66.1206 11.1924 65.9302 10.9404C65.7397 10.6885 65.4761 10.5625 65.1392 10.5625ZM69.7227 14.5703C69.2686 14.5703 68.9009 14.4414 68.6196 14.1836C68.3413 13.9258 68.2021 13.5815 68.2021 13.1509C68.2021 12.7319 68.3442 12.3979 68.6284 12.1489C68.9155 11.8999 69.3213 11.7754 69.8457 11.7754H71.019V11.3403C71.019 11.0796 70.9414 10.8848 70.7861 10.7559C70.6338 10.624 70.4199 10.5581 70.1445 10.5581C69.6699 10.5581 69.3901 10.7339 69.3052 11.0854H68.3779C68.4072 10.6841 68.5728 10.3677 68.8745 10.1362C69.1792 9.90186 69.6128 9.78467 70.1753 9.78467C70.4331 9.78467 70.6675 9.81396 70.8784 9.87256C71.0923 9.92822 71.2842 10.0161 71.4541 10.1362C71.624 10.2534 71.7559 10.416 71.8496 10.624C71.9434 10.8291 71.9902 11.0723 71.9902 11.3535V14.5H71.063V13.8979H71.019C70.9048 14.0972 70.7393 14.2598 70.5225 14.3857C70.3086 14.5088 70.042 14.5703 69.7227 14.5703ZM70.0259 13.8145C70.3042 13.8145 70.5386 13.731 70.729 13.564C70.9224 13.394 71.019 13.1831 71.019 12.9312V12.4302H69.9995C69.7271 12.4302 69.522 12.4917 69.3843 12.6147C69.2495 12.7378 69.1821 12.9004 69.1821 13.1025C69.1821 13.3311 69.2627 13.5068 69.4238 13.6299C69.5879 13.7529 69.7886 13.8145 70.0259 13.8145ZM74.9961 9.79346C75.3213 9.79346 75.6025 9.86084 75.8398 9.99561C76.0771 10.1304 76.2412 10.3164 76.332 10.5537H76.3804V8.18506H77.356V14.5H76.4067V13.7573H76.3584C76.2881 13.9946 76.1255 14.188 75.8706 14.3374C75.6157 14.4868 75.3198 14.5615 74.9829 14.5615C74.4468 14.5615 74.019 14.3828 73.6997 14.0254C73.3804 13.668 73.2207 13.1846 73.2207 12.5752V11.7798C73.2207 11.1704 73.3818 10.687 73.7041 10.3296C74.0293 9.97217 74.46 9.79346 74.9961 9.79346ZM75.2686 10.5933C74.9404 10.5933 74.6826 10.7104 74.4951 10.9448C74.3076 11.1763 74.2139 11.5015 74.2139 11.9204V12.4302C74.2139 12.8521 74.3091 13.1802 74.4995 13.4146C74.6899 13.646 74.9536 13.7617 75.2905 13.7617C75.6216 13.7617 75.8853 13.6489 76.0815 13.4233C76.2808 13.1948 76.3804 12.8843 76.3804 12.4917V11.7886C76.3804 11.4341 76.2764 11.147 76.0684 10.9272C75.8604 10.7046 75.5938 10.5933 75.2686 10.5933ZM82.7129 9.77588C83.3281 9.77588 83.8247 9.96338 84.2026 10.3384C84.5835 10.7134 84.7739 11.2231 84.7739 11.8677V12.4697C84.7739 13.1318 84.585 13.6489 84.207 14.021C83.8291 14.3931 83.3311 14.5791 82.7129 14.5791C82.0859 14.5791 81.5835 14.3945 81.2056 14.0254C80.8306 13.6562 80.6431 13.1392 80.6431 12.4741V11.8721C80.6431 11.2422 80.835 10.7354 81.2188 10.3516C81.6025 9.96777 82.1006 9.77588 82.7129 9.77588ZM82.7173 10.5625C82.3774 10.5625 82.1108 10.6899 81.9175 10.9448C81.7241 11.1968 81.6274 11.522 81.6274 11.9204V12.439C81.6274 12.8433 81.7212 13.1699 81.9087 13.4189C82.0991 13.668 82.3687 13.7925 82.7173 13.7925C83.063 13.7925 83.3281 13.668 83.5127 13.4189C83.7002 13.1699 83.7939 12.8433 83.7939 12.439V11.9204C83.7939 11.519 83.6987 11.1924 83.5083 10.9404C83.3179 10.6885 83.0542 10.5625 82.7173 10.5625ZM86.0308 14.5V9.85498H86.9888V10.6899H87.0371C87.0635 10.6079 87.0957 10.5303 87.1338 10.457C87.1748 10.3809 87.2334 10.3003 87.3096 10.2153C87.3857 10.1304 87.4722 10.0586 87.5688 10C87.6655 9.93848 87.7886 9.88721 87.938 9.84619C88.0903 9.80518 88.2559 9.78467 88.4346 9.78467C88.918 9.78467 89.2988 9.91943 89.5771 10.189C89.8584 10.4556 89.999 10.8467 89.999 11.3623V14.5H89.0234V11.6479C89.0234 11.3052 88.9414 11.0474 88.7773 10.8745C88.6133 10.7017 88.3892 10.6152 88.105 10.6152C87.7563 10.6152 87.4854 10.7354 87.292 10.9756C87.1016 11.2158 87.0063 11.5308 87.0063 11.9204V14.5H86.0308ZM93.7739 9.88574V8.72559H94.7275V9.88574H95.769V10.6504H94.7275V13.1157C94.7275 13.3647 94.7788 13.5347 94.8813 13.6255C94.9868 13.7163 95.1729 13.7617 95.4395 13.7617C95.5947 13.7617 95.7222 13.7559 95.8218 13.7441V14.4912C95.6636 14.5176 95.4556 14.5308 95.1978 14.5308C94.6499 14.5308 94.2734 14.4297 94.0684 14.2275C93.8633 14.0225 93.7607 13.6782 93.7607 13.1948V10.6504H93.0532V9.88574H93.7739ZM96.9995 14.5V8.18506H97.9707V10.6899H98.019C98.0483 10.5962 98.0938 10.5024 98.1553 10.4087C98.2168 10.312 98.3003 10.2153 98.4058 10.1187C98.5142 10.019 98.6562 9.93848 98.832 9.87695C99.0107 9.81543 99.21 9.78467 99.4297 9.78467C99.8984 9.78467 100.273 9.9209 100.555 10.1934C100.839 10.4629 100.981 10.854 100.981 11.3667V14.5H100.01V11.6523C100.01 11.3096 99.9233 11.0518 99.7505 10.8789C99.5806 10.7031 99.3521 10.6152 99.0649 10.6152C98.7222 10.6152 98.4541 10.7368 98.2607 10.98C98.0674 11.2202 97.9707 11.5337 97.9707 11.9204V14.5H96.9995ZM104.255 14.5791C103.619 14.5791 103.118 14.3945 102.752 14.0254C102.386 13.6562 102.203 13.145 102.203 12.4917V11.8633C102.203 11.2188 102.389 10.7104 102.761 10.3384C103.136 9.96338 103.615 9.77588 104.198 9.77588C104.787 9.77588 105.264 9.96631 105.63 10.3472C106 10.7251 106.184 11.2305 106.184 11.8633V12.4082H103.169V12.6367C103.169 12.9795 103.266 13.2593 103.459 13.4761C103.653 13.6899 103.917 13.7969 104.25 13.7969C104.497 13.7969 104.703 13.7456 104.87 13.6431C105.04 13.5405 105.143 13.4146 105.178 13.2651H106.131C106.117 13.4087 106.068 13.5537 105.986 13.7002C105.904 13.8467 105.79 13.9873 105.644 14.1221C105.5 14.2568 105.307 14.3667 105.063 14.4517C104.82 14.5366 104.551 14.5791 104.255 14.5791ZM103.169 11.771H105.23V11.7095C105.23 11.3608 105.137 11.0796 104.949 10.8657C104.762 10.6519 104.513 10.5449 104.202 10.5449C103.892 10.5449 103.641 10.6519 103.451 10.8657C103.263 11.0796 103.169 11.3608 103.169 11.7095V11.771Z" fill="white"/>
<path d="M38.7061 30.5H36.6758L40.8066 18.5029H43.0391L47.1611 30.5H45.0518L43.9883 27.1777H39.7783L38.7061 30.5ZM41.9316 20.5771H41.8525L40.2266 25.6484H43.54L41.9316 20.5771ZM52.7644 30.6318C52.1784 30.6318 51.6599 30.5059 51.2087 30.2539C50.7575 29.9961 50.406 29.6475 50.154 29.208H50.0837V33.585H48.1325V21.21H50.031V22.5723H50.1013C50.365 22.1152 50.7282 21.7549 51.1911 21.4912C51.6599 21.2217 52.1989 21.0869 52.8083 21.0869C53.8747 21.0869 54.7361 21.4736 55.3923 22.2471C56.0486 23.0146 56.3767 24.0781 56.3767 25.4375V26.2637C56.3767 27.623 56.0456 28.6924 55.3835 29.4717C54.7273 30.2451 53.8542 30.6318 52.7644 30.6318ZM52.3161 29.0234C52.9489 29.0234 53.4529 28.7744 53.8279 28.2764C54.2087 27.7783 54.3991 27.0723 54.3991 26.1582V25.5078C54.3991 24.6113 54.2116 23.917 53.8366 23.4248C53.4675 22.9268 52.9489 22.6777 52.281 22.6777C51.6013 22.6777 51.0622 22.9326 50.6638 23.4424C50.2654 23.9521 50.0661 24.6377 50.0661 25.499V26.1582C50.0661 27.0371 50.2683 27.7344 50.6726 28.25C51.0769 28.7656 51.6247 29.0234 52.3161 29.0234ZM62.683 30.6318C62.0971 30.6318 61.5786 30.5059 61.1274 30.2539C60.6762 29.9961 60.3246 29.6475 60.0727 29.208H60.0024V33.585H58.0512V21.21H59.9496V22.5723H60.02C60.2836 22.1152 60.6469 21.7549 61.1098 21.4912C61.5786 21.2217 62.1176 21.0869 62.727 21.0869C63.7934 21.0869 64.6547 21.4736 65.311 22.2471C65.9672 23.0146 66.2954 24.0781 66.2954 25.4375V26.2637C66.2954 27.623 65.9643 28.6924 65.3022 29.4717C64.6459 30.2451 63.7729 30.6318 62.683 30.6318ZM62.2348 29.0234C62.8676 29.0234 63.3715 28.7744 63.7465 28.2764C64.1274 27.7783 64.3178 27.0723 64.3178 26.1582V25.5078C64.3178 24.6113 64.1303 23.917 63.7553 23.4248C63.3862 22.9268 62.8676 22.6777 62.1996 22.6777C61.52 22.6777 60.9809 22.9326 60.5825 23.4424C60.184 23.9521 59.9848 24.6377 59.9848 25.499V26.1582C59.9848 27.0371 60.187 27.7344 60.5912 28.25C60.9955 28.7656 61.5434 29.0234 62.2348 29.0234ZM70.3387 27.1689H72.2899C72.3368 27.7197 72.5946 28.1797 73.0634 28.5488C73.538 28.9121 74.1796 29.0938 74.9882 29.0938C75.7616 29.0938 76.368 28.9268 76.8075 28.5928C77.247 28.2529 77.4667 27.7988 77.4667 27.2305C77.4667 26.7793 77.3143 26.4219 77.0096 26.1582C76.705 25.8887 76.2245 25.6748 75.5682 25.5166L73.5995 25.0244C73.1893 24.9307 72.8173 24.8018 72.4833 24.6377C72.1493 24.4736 71.8417 24.2656 71.5604 24.0137C71.2792 23.7559 71.0595 23.4395 70.9012 23.0645C70.743 22.6836 70.6639 22.2588 70.6639 21.79C70.6639 21.0518 70.8632 20.4102 71.2616 19.8652C71.6659 19.3145 72.1903 18.9072 72.8348 18.6436C73.4852 18.374 74.2059 18.2393 74.997 18.2393C76.2098 18.2393 77.2264 18.5527 78.0468 19.1797C78.8671 19.8008 79.2889 20.6533 79.3124 21.7373H77.3964C77.3495 21.1924 77.118 20.7471 76.702 20.4014C76.2919 20.0498 75.7147 19.874 74.9706 19.874C74.2733 19.874 73.7137 20.0322 73.2919 20.3486C72.8759 20.6592 72.6679 21.0898 72.6679 21.6406C72.6679 22.4551 73.2216 22.9883 74.329 23.2402L76.2889 23.7236C76.7694 23.8408 77.1913 23.9844 77.5546 24.1543C77.9179 24.3184 78.2489 24.5293 78.5477 24.7871C78.8466 25.0449 79.0721 25.3643 79.2245 25.7451C79.3827 26.126 79.4618 26.5625 79.4618 27.0547C79.4618 28.209 79.037 29.1113 78.1874 29.7617C77.3436 30.4121 76.2274 30.7373 74.8387 30.7373C74.1942 30.7373 73.6112 30.6641 73.0897 30.5176C72.5741 30.3711 72.1493 30.1807 71.8153 29.9463C71.4872 29.7119 71.2089 29.4365 70.9804 29.1201C70.7577 28.8037 70.5966 28.4844 70.497 28.1621C70.4032 27.8398 70.3505 27.5088 70.3387 27.1689ZM81.8395 21.21V18.9512H83.7555V21.21H85.566V22.7744H83.7555V27.7314C83.7555 28.2295 83.858 28.5693 84.0631 28.751C84.274 28.9326 84.6461 29.0234 85.1793 29.0234C85.3961 29.0234 85.5426 29.0176 85.6188 29.0059V30.5C85.3727 30.541 85.065 30.5615 84.6959 30.5615C83.9459 30.5615 83.36 30.4648 82.9381 30.2715C82.5162 30.0781 82.2232 29.7939 82.0592 29.4189C81.8951 29.0439 81.8131 28.5342 81.8131 27.8896V22.7744H80.5299V21.21H81.8395ZM87.7855 22.2822C88.5179 21.4619 89.5345 21.0518 90.8353 21.0518C92.1361 21.0518 93.1468 21.4619 93.8675 22.2822C94.5941 23.0967 94.9573 24.1572 94.9573 25.4639V26.2109C94.9573 27.5527 94.597 28.6309 93.8763 29.4453C93.1614 30.2539 92.1478 30.6582 90.8353 30.6582C89.5228 30.6582 88.5032 30.2539 87.7767 29.4453C87.056 28.6309 86.6956 27.5527 86.6956 26.2109V25.4639C86.6956 24.1631 87.0589 23.1025 87.7855 22.2822ZM92.4437 23.3984C92.0745 22.877 91.5384 22.6162 90.8353 22.6162C90.1321 22.6162 89.5931 22.877 89.2181 23.3984C88.8489 23.9199 88.6644 24.6172 88.6644 25.4902V26.2021C88.6644 27.0693 88.8489 27.7666 89.2181 28.2939C89.5931 28.8213 90.1321 29.085 90.8353 29.085C91.5384 29.085 92.0745 28.8213 92.4437 28.2939C92.8128 27.7666 92.9974 27.0693 92.9974 26.2021V25.4902C92.9974 24.6113 92.8128 23.9141 92.4437 23.3984ZM96.6055 30.5V21.21H98.5567V22.4316H98.627C98.7735 22.0801 99.0342 21.7666 99.4092 21.4912C99.7842 21.2158 100.265 21.0781 100.851 21.0781C101.108 21.0781 101.328 21.0957 101.51 21.1309V22.8535C101.334 22.8066 101.056 22.7832 100.675 22.7832C99.9366 22.7832 99.4034 22.9824 99.0752 23.3809C98.7471 23.7793 98.583 24.3184 98.583 24.998V30.5H96.6055ZM106.243 30.6582C104.995 30.6582 104.005 30.2686 103.272 29.4893C102.54 28.7041 102.174 27.6289 102.174 26.2637V25.3232C102.174 24.0225 102.534 22.9854 103.255 22.2119C103.975 21.4385 104.945 21.0518 106.164 21.0518C107.394 21.0518 108.364 21.4473 109.073 22.2383C109.782 23.0293 110.136 24.0869 110.136 25.4111V26.2988H104.098V26.5186C104.098 27.3037 104.295 27.9336 104.687 28.4082C105.08 28.8828 105.607 29.1201 106.269 29.1201C106.761 29.1201 107.172 29.0059 107.5 28.7773C107.828 28.5488 108.053 28.2324 108.177 27.8281H110.031C109.879 28.6426 109.48 29.3193 108.836 29.8584C108.191 30.3916 107.327 30.6582 106.243 30.6582ZM104.098 24.9365H108.229V24.9189C108.229 24.2451 108.039 23.6855 107.658 23.2402C107.277 22.7891 106.782 22.5635 106.173 22.5635C105.557 22.5635 105.056 22.7891 104.67 23.2402C104.289 23.6855 104.098 24.2451 104.098 24.9189V24.9365Z" fill="white"/>
</svg>
