<svg width="606" height="605" viewBox="0 0 606 605" fill="none" xmlns="http://www.w3.org/2000/svg">
<g opacity="0.5">
<mask id="mask0_2123_22197" style="mask-type:alpha" maskUnits="userSpaceOnUse" x="124" y="0" width="359" height="359">
<rect width="359" height="359" transform="translate(124)" fill="url(#paint0_radial_2123_22197)"/>
</mask>
<g mask="url(#mask0_2123_22197)">
<g clip-path="url(#clip0_2123_22197)">
<g clip-path="url(#clip1_2123_22197)">
<line x1="160.087" x2="160.087" y2="359" stroke="#D0D5DD" stroke-width="0.373958"/>
<line x1="195.987" x2="195.987" y2="359" stroke="#D0D5DD" stroke-width="0.373958"/>
<line x1="231.887" x2="231.887" y2="359" stroke="#D0D5DD" stroke-width="0.373958"/>
<line x1="267.787" x2="267.787" y2="359" stroke="#D0D5DD" stroke-width="0.373958"/>
<line x1="303.687" x2="303.687" y2="359" stroke="#D0D5DD" stroke-width="0.373958"/>
<line x1="339.587" x2="339.587" y2="359" stroke="#D0D5DD" stroke-width="0.373958"/>
<line x1="375.487" x2="375.487" y2="359" stroke="#D0D5DD" stroke-width="0.373958"/>
<line x1="411.387" x2="411.387" y2="359" stroke="#D0D5DD" stroke-width="0.373958"/>
<line x1="447.287" x2="447.287" y2="359" stroke="#D0D5DD" stroke-width="0.373958"/>
</g>
<g clip-path="url(#clip2_2123_22197)">
<line x1="124" y1="35.7129" x2="483" y2="35.7129" stroke="#D0D5DD" stroke-width="0.373958"/>
<line x1="124" y1="71.6131" x2="483" y2="71.6131" stroke="#D0D5DD" stroke-width="0.373958"/>
<line x1="124" y1="107.513" x2="483" y2="107.513" stroke="#D0D5DD" stroke-width="0.373958"/>
<line x1="124" y1="143.413" x2="483" y2="143.413" stroke="#D0D5DD" stroke-width="0.373958"/>
<line x1="124" y1="179.313" x2="483" y2="179.313" stroke="#D0D5DD" stroke-width="0.373958"/>
<line x1="124" y1="215.213" x2="483" y2="215.213" stroke="#D0D5DD" stroke-width="0.373958"/>
<line x1="124" y1="251.113" x2="483" y2="251.113" stroke="#D0D5DD" stroke-width="0.373958"/>
<line x1="124" y1="287.013" x2="483" y2="287.013" stroke="#D0D5DD" stroke-width="0.373958"/>
<line x1="124" y1="322.913" x2="483" y2="322.913" stroke="#D0D5DD" stroke-width="0.373958"/>
</g>
</g>
</g>
</g>
<defs>
<radialGradient id="paint0_radial_2123_22197" cx="0" cy="0" r="1" gradientUnits="userSpaceOnUse" gradientTransform="translate(179.5 -4.27961e-05) rotate(90) scale(359 187.375)">
<stop/>
<stop offset="0.953125" stop-opacity="0"/>
</radialGradient>
<clipPath id="clip0_2123_22197">
<rect width="359" height="359" fill="white" transform="translate(124)"/>
</clipPath>
<clipPath id="clip1_2123_22197">
<rect width="359" height="359" fill="white" transform="translate(124)"/>
</clipPath>
<clipPath id="clip2_2123_22197">
<rect width="359" height="359" fill="white" transform="translate(124)"/>
</clipPath>
</defs>
</svg>
