<svg width="1440" height="14" viewBox="0 0 1440 14" fill="none" xmlns="http://www.w3.org/2000/svg">
<path d="M1017.95 0.638673L1027.85 13.4429L1008.06 13.4429L1017.95 0.638673Z" fill="white"/>
<path d="M998.165 0.638673L1008.06 13.4429L988.271 13.4429L998.165 0.638673Z" fill="white"/>
<path d="M978.377 0.638673L988.271 13.4429L968.482 13.4429L978.377 0.638673Z" fill="white"/>
<path d="M958.006 0.638673L968.482 13.4429L947.53 13.4429L958.006 0.638673Z" fill="white"/>
<path d="M938.218 0.638673L947.53 13.4429L928.906 13.4429L938.218 0.638673Z" fill="white"/>
<path d="M917.848 0.638673L928.906 13.4429L906.789 13.4429L917.848 0.638673Z" fill="white"/>
<path d="M896.895 0.638673L906.789 13.4429L887.001 13.4429L896.895 0.638673Z" fill="white"/>
<path d="M877.107 0.638673L887.001 13.4429L867.212 13.4429L877.107 0.638673Z" fill="white"/>
<path d="M857.318 0.638673L867.212 13.4429L847.424 13.4429L857.318 0.638673Z" fill="white"/>
<path d="M836.948 0.638673L847.424 13.4429L826.472 13.4429L836.948 0.638673Z" fill="white"/>
<path d="M817.159 0.638673L826.472 13.4429L807.847 13.4429L817.159 0.638673Z" fill="white"/>
<path d="M797.371 0.638673L807.847 13.4429L786.895 13.4429L797.371 0.638673Z" fill="white"/>
<path d="M777.001 0.638673L786.895 13.4429L767.106 13.4429L777.001 0.638673Z" fill="white"/>
<path d="M757.212 0.638673L767.106 13.4429L747.318 13.4429L757.212 0.638673Z" fill="white"/>
<path d="M737.424 0.638673L747.318 13.4429L727.53 13.4429L737.424 0.638673Z" fill="white"/>
<path d="M716.472 0.638673L727.53 13.4429L705.413 13.4429L716.472 0.638673Z" fill="white"/>
<path d="M696.101 0.638673L705.413 13.4429L686.789 13.4429L696.101 0.638673Z" fill="white"/>
<path d="M676.313 0.638673L686.789 13.4429L665.836 13.4429L676.313 0.638673Z" fill="white"/>
<path d="M655.942 0.638673L665.836 13.4429L646.048 13.4429L655.942 0.638673Z" fill="white"/>
<path d="M636.154 0.638673L646.048 13.4429L626.26 13.4429L636.154 0.638673Z" fill="white"/>
<path d="M616.365 0.638674L626.26 13.4429L606.471 13.4429L616.365 0.638674Z" fill="white"/>
<path d="M1437.51 0.638673L1447.41 13.4429L1427.62 13.4429L1437.51 0.638673Z" fill="white"/>
<path d="M1417.73 0.638673L1427.62 13.4429L1407.83 13.4429L1417.73 0.638673Z" fill="white"/>
<path d="M1397.94 0.638673L1407.83 13.4429L1388.04 13.4429L1397.94 0.638673Z" fill="white"/>
<path d="M1377.57 0.638673L1388.04 13.4429L1367.09 13.4429L1377.57 0.638673Z" fill="white"/>
<path d="M1357.78 0.638673L1367.09 13.4429L1348.47 13.4429L1357.78 0.638673Z" fill="white"/>
<path d="M1337.41 0.638673L1348.47 13.4429L1326.35 13.4429L1337.41 0.638673Z" fill="white"/>
<path d="M1316.46 0.638673L1326.35 13.4429L1306.56 13.4429L1316.46 0.638673Z" fill="white"/>
<path d="M1296.67 0.638673L1306.56 13.4429L1286.77 13.4429L1296.67 0.638673Z" fill="white"/>
<path d="M1276.88 0.638673L1286.77 13.4429L1266.98 13.4429L1276.88 0.638673Z" fill="white"/>
<path d="M1256.51 0.638673L1266.98 13.4429L1246.03 13.4429L1256.51 0.638673Z" fill="white"/>
<path d="M1236.72 0.638673L1246.03 13.4429L1227.41 13.4429L1236.72 0.638673Z" fill="white"/>
<path d="M1216.93 0.638673L1227.41 13.4429L1206.46 13.4429L1216.93 0.638673Z" fill="white"/>
<path d="M1196.56 0.638673L1206.46 13.4429L1186.67 13.4429L1196.56 0.638673Z" fill="white"/>
<path d="M1176.77 0.638673L1186.67 13.4429L1166.88 13.4429L1176.77 0.638673Z" fill="white"/>
<path d="M1156.98 0.638673L1166.88 13.4429L1147.09 13.4429L1156.98 0.638673Z" fill="white"/>
<path d="M1136.03 0.638673L1147.09 13.4429L1124.97 13.4429L1136.03 0.638673Z" fill="white"/>
<path d="M1115.66 0.638673L1124.97 13.4429L1106.35 13.4429L1115.66 0.638673Z" fill="white"/>
<path d="M1095.87 0.638673L1106.35 13.4429L1085.4 13.4429L1095.87 0.638673Z" fill="white"/>
<path d="M1075.5 0.638673L1085.4 13.4429L1065.61 13.4429L1075.5 0.638673Z" fill="white"/>
<path d="M1055.71 0.638673L1065.61 13.4429L1045.82 13.4429L1055.71 0.638673Z" fill="white"/>
<path d="M1035.93 0.638674L1045.82 13.4429L1026.03 13.4429L1035.93 0.638674Z" fill="white"/>
<path d="M174.954 0.638673L184.848 13.4429L165.059 13.4429L174.954 0.638673Z" fill="white"/>
<path d="M155.165 0.638673L165.059 13.4429L145.271 13.4429L155.165 0.638673Z" fill="white"/>
<path d="M135.377 0.638673L145.271 13.4429L125.482 13.4429L135.377 0.638673Z" fill="white"/>
<path d="M115.006 0.638673L125.482 13.4429L104.53 13.4429L115.006 0.638673Z" fill="white"/>
<path d="M95.218 0.638673L104.53 13.4429L85.9058 13.4429L95.218 0.638673Z" fill="white"/>
<path d="M74.8475 0.638673L85.9058 13.4429L63.7893 13.4429L74.8475 0.638673Z" fill="white"/>
<path d="M53.8952 0.638673L63.7894 13.4429L44.001 13.4429L53.8952 0.638673Z" fill="white"/>
<path d="M34.1066 0.638673L44.0008 13.4429L24.2124 13.4429L34.1066 0.638673Z" fill="white"/>
<path d="M14.3183 0.638673L24.2125 13.4429L4.42407 13.4429L14.3183 0.638673Z" fill="white"/>
<path d="M-6.05211 0.638673L4.4241 13.4429L-16.5283 13.4429L-6.05211 0.638673Z" fill="white"/>
<path d="M594.514 0.638673L604.408 13.4429L584.62 13.4429L594.514 0.638673Z" fill="white"/>
<path d="M574.725 0.638673L584.62 13.4429L564.831 13.4429L574.725 0.638673Z" fill="white"/>
<path d="M554.937 0.638673L564.831 13.4429L545.043 13.4429L554.937 0.638673Z" fill="white"/>
<path d="M534.567 0.638673L545.043 13.4429L524.091 13.4429L534.567 0.638673Z" fill="white"/>
<path d="M514.778 0.638673L524.091 13.4429L505.466 13.4429L514.778 0.638673Z" fill="white"/>
<path d="M494.408 0.638673L505.466 13.4429L483.35 13.4429L494.408 0.638673Z" fill="white"/>
<path d="M473.456 0.638673L483.35 13.4429L463.562 13.4429L473.456 0.638673Z" fill="white"/>
<path d="M453.667 0.638673L463.561 13.4429L443.773 13.4429L453.667 0.638673Z" fill="white"/>
<path d="M433.879 0.638673L443.773 13.4429L423.985 13.4429L433.879 0.638673Z" fill="white"/>
<path d="M413.508 0.638673L423.985 13.4429L403.032 13.4429L413.508 0.638673Z" fill="white"/>
<path d="M393.72 0.638673L403.032 13.4429L384.408 13.4429L393.72 0.638673Z" fill="white"/>
<path d="M373.932 0.638673L384.408 13.4429L363.455 13.4429L373.932 0.638673Z" fill="white"/>
<path d="M353.561 0.638673L363.455 13.4429L343.667 13.4429L353.561 0.638673Z" fill="white"/>
<path d="M333.773 0.638673L343.667 13.4429L323.878 13.4429L333.773 0.638673Z" fill="white"/>
<path d="M313.984 0.638673L323.878 13.4429L304.09 13.4429L313.984 0.638673Z" fill="white"/>
<path d="M293.032 0.638673L304.09 13.4429L281.974 13.4429L293.032 0.638673Z" fill="white"/>
<path d="M272.662 0.638673L281.974 13.4429L263.349 13.4429L272.662 0.638673Z" fill="white"/>
<path d="M252.873 0.638673L263.349 13.4429L242.397 13.4429L252.873 0.638673Z" fill="white"/>
<path d="M232.503 0.638673L242.397 13.4429L222.609 13.4429L232.503 0.638673Z" fill="white"/>
<path d="M212.714 0.638673L222.608 13.4429L202.82 13.4429L212.714 0.638673Z" fill="white"/>
<path d="M192.926 0.638674L202.82 13.4429L183.032 13.4429L192.926 0.638674Z" fill="white"/>
</svg>
